<mxfile host="app.diagrams.net" agent="Mozilla/5.0 (Windows NT 10.0; Win64; x64) AppleWebKit/537.36 (KHTML, like Gecko) Chrome/141.0.0.0 Safari/537.36" version="28.2.5" pages="5">
  <diagram name="Página-1" id="H4r4B2JsdCDVrjLWaR6o">
    <mxGraphModel dx="1426" dy="743" grid="1" gridSize="10" guides="1" tooltips="1" connect="1" arrows="1" fold="1" page="1" pageScale="1" pageWidth="827" pageHeight="1169" math="0" shadow="0">
      <root>
        <mxCell id="0" />
        <mxCell id="1" parent="0" />
        <mxCell id="riOq776ICpYBMlTKr23R-16" style="edgeStyle=orthogonalEdgeStyle;rounded=0;orthogonalLoop=1;jettySize=auto;html=1;exitX=0.5;exitY=0.5;exitDx=0;exitDy=0;exitPerimeter=0;entryX=0;entryY=0.5;entryDx=0;entryDy=0;endArrow=none;endFill=0;" parent="1" source="riOq776ICpYBMlTKr23R-1" target="riOq776ICpYBMlTKr23R-7" edge="1">
          <mxGeometry relative="1" as="geometry" />
        </mxCell>
        <mxCell id="riOq776ICpYBMlTKr23R-1" value="Usuários" style="shape=umlActor;verticalLabelPosition=bottom;verticalAlign=top;html=1;outlineConnect=0;" parent="1" vertex="1">
          <mxGeometry x="200" y="25" width="30" height="60" as="geometry" />
        </mxCell>
        <mxCell id="riOq776ICpYBMlTKr23R-2" value="Secretaria" style="shape=umlActor;verticalLabelPosition=bottom;verticalAlign=top;html=1;outlineConnect=0;" parent="1" vertex="1">
          <mxGeometry x="90" y="170" width="30" height="60" as="geometry" />
        </mxCell>
        <mxCell id="riOq776ICpYBMlTKr23R-3" value="Alunos" style="shape=umlActor;verticalLabelPosition=bottom;verticalAlign=top;html=1;outlineConnect=0;" parent="1" vertex="1">
          <mxGeometry x="280" y="170" width="30" height="60" as="geometry" />
        </mxCell>
        <mxCell id="riOq776ICpYBMlTKr23R-4" value="Professores" style="shape=umlActor;verticalLabelPosition=bottom;verticalAlign=top;html=1;outlineConnect=0;" parent="1" vertex="1">
          <mxGeometry x="540" y="170" width="30" height="60" as="geometry" />
        </mxCell>
        <mxCell id="riOq776ICpYBMlTKr23R-7" value="Fazer Login" style="ellipse;whiteSpace=wrap;html=1;" parent="1" vertex="1">
          <mxGeometry x="414" y="30" width="120" height="50" as="geometry" />
        </mxCell>
        <mxCell id="riOq776ICpYBMlTKr23R-8" value="Recuperar&lt;div&gt;Senha&lt;/div&gt;" style="ellipse;whiteSpace=wrap;html=1;" parent="1" vertex="1">
          <mxGeometry x="640" y="10" width="120" height="50" as="geometry" />
        </mxCell>
        <mxCell id="riOq776ICpYBMlTKr23R-9" value="Fazer logout" style="ellipse;whiteSpace=wrap;html=1;" parent="1" vertex="1">
          <mxGeometry x="640" y="70" width="120" height="50" as="geometry" />
        </mxCell>
        <mxCell id="riOq776ICpYBMlTKr23R-10" value="" style="endArrow=classic;html=1;rounded=0;dashed=1;exitX=0.98;exitY=0.352;exitDx=0;exitDy=0;exitPerimeter=0;entryX=0;entryY=0.5;entryDx=0;entryDy=0;" parent="1" source="riOq776ICpYBMlTKr23R-7" target="riOq776ICpYBMlTKr23R-8" edge="1">
          <mxGeometry width="50" height="50" relative="1" as="geometry">
            <mxPoint x="390" y="300" as="sourcePoint" />
            <mxPoint x="440" y="250" as="targetPoint" />
          </mxGeometry>
        </mxCell>
        <mxCell id="riOq776ICpYBMlTKr23R-11" value="&amp;lt;&amp;lt;Extends&amp;gt;&amp;gt;" style="edgeLabel;html=1;align=center;verticalAlign=middle;resizable=0;points=[];" parent="riOq776ICpYBMlTKr23R-10" vertex="1" connectable="0">
          <mxGeometry x="-0.1629" y="3" relative="1" as="geometry">
            <mxPoint x="1" as="offset" />
          </mxGeometry>
        </mxCell>
        <mxCell id="riOq776ICpYBMlTKr23R-12" value="" style="endArrow=classic;html=1;rounded=0;dashed=1;exitX=0.927;exitY=0.848;exitDx=0;exitDy=0;exitPerimeter=0;entryX=0;entryY=0.5;entryDx=0;entryDy=0;" parent="1" source="riOq776ICpYBMlTKr23R-7" target="riOq776ICpYBMlTKr23R-9" edge="1">
          <mxGeometry width="50" height="50" relative="1" as="geometry">
            <mxPoint x="400" y="273" as="sourcePoint" />
            <mxPoint x="508" y="260" as="targetPoint" />
          </mxGeometry>
        </mxCell>
        <mxCell id="riOq776ICpYBMlTKr23R-13" value="&amp;lt;&amp;lt;Extends&amp;gt;&amp;gt;" style="edgeLabel;html=1;align=center;verticalAlign=middle;resizable=0;points=[];" parent="riOq776ICpYBMlTKr23R-12" vertex="1" connectable="0">
          <mxGeometry x="-0.1629" y="3" relative="1" as="geometry">
            <mxPoint x="1" as="offset" />
          </mxGeometry>
        </mxCell>
        <mxCell id="riOq776ICpYBMlTKr23R-15" value="" style="endArrow=none;html=1;rounded=0;entryX=0;entryY=0.5;entryDx=0;entryDy=0;" parent="1" target="riOq776ICpYBMlTKr23R-40" edge="1">
          <mxGeometry width="50" height="50" relative="1" as="geometry">
            <mxPoint x="580" y="220" as="sourcePoint" />
            <mxPoint x="520" y="410" as="targetPoint" />
          </mxGeometry>
        </mxCell>
        <mxCell id="riOq776ICpYBMlTKr23R-17" value="" style="endArrow=block;html=1;rounded=0;endFill=0;" parent="1" target="riOq776ICpYBMlTKr23R-1" edge="1">
          <mxGeometry width="50" height="50" relative="1" as="geometry">
            <mxPoint x="120" y="160" as="sourcePoint" />
            <mxPoint x="180" y="100" as="targetPoint" />
          </mxGeometry>
        </mxCell>
        <mxCell id="riOq776ICpYBMlTKr23R-18" value="" style="endArrow=block;html=1;rounded=0;endFill=0;" parent="1" edge="1">
          <mxGeometry width="50" height="50" relative="1" as="geometry">
            <mxPoint x="270" y="160" as="sourcePoint" />
            <mxPoint x="230" y="110" as="targetPoint" />
          </mxGeometry>
        </mxCell>
        <mxCell id="riOq776ICpYBMlTKr23R-19" value="" style="endArrow=block;html=1;rounded=0;endFill=0;" parent="1" source="riOq776ICpYBMlTKr23R-4" edge="1">
          <mxGeometry width="50" height="50" relative="1" as="geometry">
            <mxPoint x="340" y="150" as="sourcePoint" />
            <mxPoint x="250" y="80" as="targetPoint" />
          </mxGeometry>
        </mxCell>
        <mxCell id="riOq776ICpYBMlTKr23R-25" value="Gerenciar&lt;div&gt;Alunos&lt;/div&gt;" style="ellipse;whiteSpace=wrap;html=1;" parent="1" vertex="1">
          <mxGeometry x="10" y="330" width="120" height="50" as="geometry" />
        </mxCell>
        <mxCell id="riOq776ICpYBMlTKr23R-26" value="Realizar&lt;div&gt;Matrícula&lt;/div&gt;" style="ellipse;whiteSpace=wrap;html=1;" parent="1" vertex="1">
          <mxGeometry x="170" y="300" width="120" height="50" as="geometry" />
        </mxCell>
        <mxCell id="riOq776ICpYBMlTKr23R-27" value="" style="endArrow=none;html=1;rounded=0;exitX=0.25;exitY=0;exitDx=0;exitDy=0;exitPerimeter=0;" parent="1" source="riOq776ICpYBMlTKr23R-25" edge="1">
          <mxGeometry width="50" height="50" relative="1" as="geometry">
            <mxPoint x="50" y="310" as="sourcePoint" />
            <mxPoint x="80" y="250" as="targetPoint" />
          </mxGeometry>
        </mxCell>
        <mxCell id="riOq776ICpYBMlTKr23R-28" value="" style="endArrow=none;html=1;rounded=0;exitX=0.047;exitY=0.232;exitDx=0;exitDy=0;exitPerimeter=0;" parent="1" source="riOq776ICpYBMlTKr23R-26" edge="1">
          <mxGeometry width="50" height="50" relative="1" as="geometry">
            <mxPoint x="180" y="320" as="sourcePoint" />
            <mxPoint x="130" y="260" as="targetPoint" />
          </mxGeometry>
        </mxCell>
        <mxCell id="riOq776ICpYBMlTKr23R-29" value="" style="endArrow=none;html=1;rounded=0;exitX=0.75;exitY=0;exitDx=0;exitDy=0;exitPerimeter=0;" parent="1" source="riOq776ICpYBMlTKr23R-26" edge="1">
          <mxGeometry width="50" height="50" relative="1" as="geometry">
            <mxPoint x="350" y="340" as="sourcePoint" />
            <mxPoint x="280" y="250" as="targetPoint" />
          </mxGeometry>
        </mxCell>
        <mxCell id="riOq776ICpYBMlTKr23R-30" value="Solicitar&lt;div&gt;Transferência&lt;/div&gt;" style="ellipse;whiteSpace=wrap;html=1;" parent="1" vertex="1">
          <mxGeometry x="235" y="370" width="120" height="50" as="geometry" />
        </mxCell>
        <mxCell id="riOq776ICpYBMlTKr23R-32" value="" style="endArrow=none;html=1;rounded=0;exitX=0.572;exitY=-0.016;exitDx=0;exitDy=0;exitPerimeter=0;" parent="1" source="riOq776ICpYBMlTKr23R-30" edge="1">
          <mxGeometry width="50" height="50" relative="1" as="geometry">
            <mxPoint x="570" y="360" as="sourcePoint" />
            <mxPoint x="304" y="260" as="targetPoint" />
          </mxGeometry>
        </mxCell>
        <mxCell id="riOq776ICpYBMlTKr23R-33" value="Solicitar&lt;div&gt;Históricos&lt;/div&gt;" style="ellipse;whiteSpace=wrap;html=1;" parent="1" vertex="1">
          <mxGeometry x="340" y="300" width="120" height="50" as="geometry" />
        </mxCell>
        <mxCell id="riOq776ICpYBMlTKr23R-34" value="" style="endArrow=none;html=1;rounded=0;exitX=0.333;exitY=0;exitDx=0;exitDy=0;exitPerimeter=0;" parent="1" source="riOq776ICpYBMlTKr23R-33" edge="1">
          <mxGeometry width="50" height="50" relative="1" as="geometry">
            <mxPoint x="590" y="370" as="sourcePoint" />
            <mxPoint x="330" y="230" as="targetPoint" />
          </mxGeometry>
        </mxCell>
        <mxCell id="riOq776ICpYBMlTKr23R-35" value="" style="endArrow=classic;html=1;rounded=0;dashed=1;exitX=0.767;exitY=0.128;exitDx=0;exitDy=0;entryX=0;entryY=1;entryDx=0;entryDy=0;exitPerimeter=0;" parent="1" source="riOq776ICpYBMlTKr23R-37" target="riOq776ICpYBMlTKr23R-30" edge="1">
          <mxGeometry width="50" height="50" relative="1" as="geometry">
            <mxPoint x="420" y="500" as="sourcePoint" />
            <mxPoint x="535" y="523" as="targetPoint" />
          </mxGeometry>
        </mxCell>
        <mxCell id="riOq776ICpYBMlTKr23R-36" value="&amp;lt;&amp;lt;Include&amp;gt;&amp;gt;" style="edgeLabel;html=1;align=center;verticalAlign=middle;resizable=0;points=[];" parent="riOq776ICpYBMlTKr23R-35" vertex="1" connectable="0">
          <mxGeometry x="-0.1629" y="3" relative="1" as="geometry">
            <mxPoint x="1" as="offset" />
          </mxGeometry>
        </mxCell>
        <mxCell id="riOq776ICpYBMlTKr23R-37" value="Aprovar&lt;div&gt;Transferência&lt;/div&gt;" style="ellipse;whiteSpace=wrap;html=1;" parent="1" vertex="1">
          <mxGeometry x="110" y="450" width="120" height="50" as="geometry" />
        </mxCell>
        <mxCell id="riOq776ICpYBMlTKr23R-38" value="" style="endArrow=none;html=1;rounded=0;exitX=0.5;exitY=0;exitDx=0;exitDy=0;" parent="1" source="riOq776ICpYBMlTKr23R-37" edge="1">
          <mxGeometry width="50" height="50" relative="1" as="geometry">
            <mxPoint x="720" y="350" as="sourcePoint" />
            <mxPoint x="110" y="260" as="targetPoint" />
          </mxGeometry>
        </mxCell>
        <mxCell id="riOq776ICpYBMlTKr23R-39" value="Gerenciar&lt;div&gt;Notas&lt;/div&gt;" style="ellipse;whiteSpace=wrap;html=1;" parent="1" vertex="1">
          <mxGeometry x="650" y="170" width="120" height="50" as="geometry" />
        </mxCell>
        <mxCell id="riOq776ICpYBMlTKr23R-40" value="Gerenciar&lt;div&gt;Frequências&lt;/div&gt;" style="ellipse;whiteSpace=wrap;html=1;" parent="1" vertex="1">
          <mxGeometry x="650" y="260" width="120" height="50" as="geometry" />
        </mxCell>
        <mxCell id="riOq776ICpYBMlTKr23R-41" value="" style="endArrow=none;html=1;rounded=0;entryX=0;entryY=0.5;entryDx=0;entryDy=0;" parent="1" target="riOq776ICpYBMlTKr23R-39" edge="1">
          <mxGeometry width="50" height="50" relative="1" as="geometry">
            <mxPoint x="580" y="200" as="sourcePoint" />
            <mxPoint x="650" y="420" as="targetPoint" />
          </mxGeometry>
        </mxCell>
        <mxCell id="riOq776ICpYBMlTKr23R-42" value="Consultar" style="ellipse;whiteSpace=wrap;html=1;" parent="1" vertex="1">
          <mxGeometry x="495" y="340" width="120" height="50" as="geometry" />
        </mxCell>
        <mxCell id="riOq776ICpYBMlTKr23R-43" value="" style="endArrow=none;html=1;rounded=0;exitX=0.558;exitY=-0.072;exitDx=0;exitDy=0;exitPerimeter=0;" parent="1" source="riOq776ICpYBMlTKr23R-42" edge="1">
          <mxGeometry width="50" height="50" relative="1" as="geometry">
            <mxPoint x="510" y="295" as="sourcePoint" />
            <mxPoint x="560" y="250" as="targetPoint" />
          </mxGeometry>
        </mxCell>
        <mxCell id="riOq776ICpYBMlTKr23R-44" value="" style="endArrow=none;html=1;rounded=0;entryX=0.092;entryY=0.2;entryDx=0;entryDy=0;entryPerimeter=0;" parent="1" target="riOq776ICpYBMlTKr23R-42" edge="1">
          <mxGeometry width="50" height="50" relative="1" as="geometry">
            <mxPoint x="330" y="202.5" as="sourcePoint" />
            <mxPoint x="510" y="340" as="targetPoint" />
          </mxGeometry>
        </mxCell>
        <mxCell id="riOq776ICpYBMlTKr23R-45" value="Frequências" style="ellipse;whiteSpace=wrap;html=1;" parent="1" vertex="1">
          <mxGeometry x="580" y="430" width="120" height="50" as="geometry" />
        </mxCell>
        <mxCell id="riOq776ICpYBMlTKr23R-46" value="Notas" style="ellipse;whiteSpace=wrap;html=1;" parent="1" vertex="1">
          <mxGeometry x="400" y="430" width="120" height="50" as="geometry" />
        </mxCell>
        <mxCell id="riOq776ICpYBMlTKr23R-47" value="" style="endArrow=block;html=1;rounded=0;endFill=0;exitX=0.333;exitY=0;exitDx=0;exitDy=0;exitPerimeter=0;entryX=0.765;entryY=1;entryDx=0;entryDy=0;entryPerimeter=0;" parent="1" source="riOq776ICpYBMlTKr23R-45" target="riOq776ICpYBMlTKr23R-42" edge="1">
          <mxGeometry width="50" height="50" relative="1" as="geometry">
            <mxPoint x="680" y="420" as="sourcePoint" />
            <mxPoint x="640" y="370" as="targetPoint" />
          </mxGeometry>
        </mxCell>
        <mxCell id="riOq776ICpYBMlTKr23R-48" value="" style="endArrow=block;html=1;rounded=0;endFill=0;entryX=0.245;entryY=1;entryDx=0;entryDy=0;entryPerimeter=0;exitX=0.667;exitY=0;exitDx=0;exitDy=0;exitPerimeter=0;" parent="1" source="riOq776ICpYBMlTKr23R-46" target="riOq776ICpYBMlTKr23R-42" edge="1">
          <mxGeometry width="50" height="50" relative="1" as="geometry">
            <mxPoint x="740" y="560" as="sourcePoint" />
            <mxPoint x="700" y="510" as="targetPoint" />
          </mxGeometry>
        </mxCell>
      </root>
    </mxGraphModel>
  </diagram>
  <diagram id="c5-MwMqfh0bX45gBii8e" name="Página-2">
    <mxGraphModel dx="1226" dy="620" grid="1" gridSize="10" guides="1" tooltips="1" connect="1" arrows="1" fold="1" page="1" pageScale="1" pageWidth="1169" pageHeight="827" math="0" shadow="0">
      <root>
        <mxCell id="0" />
        <mxCell id="1" parent="0" />
        <mxCell id="OFVXbDUbEy__xwBodsIL-1" value="Usuário" style="shape=umlActor;verticalLabelPosition=bottom;verticalAlign=top;html=1;outlineConnect=0;" vertex="1" parent="1">
          <mxGeometry x="557" y="95" width="30" height="60" as="geometry" />
        </mxCell>
        <mxCell id="OFVXbDUbEy__xwBodsIL-2" value="&lt;font style=&quot;vertical-align: inherit;&quot; dir=&quot;auto&quot;&gt;&lt;font style=&quot;vertical-align: inherit;&quot; dir=&quot;auto&quot;&gt;Cadastrar&lt;/font&gt;&lt;/font&gt;&lt;div&gt;&lt;font style=&quot;vertical-align: inherit;&quot; dir=&quot;auto&quot;&gt;&lt;font style=&quot;vertical-align: inherit;&quot; dir=&quot;auto&quot;&gt;Conta&lt;/font&gt;&lt;/font&gt;&lt;/div&gt;" style="ellipse;whiteSpace=wrap;html=1;" vertex="1" parent="1">
          <mxGeometry x="367" y="55" width="120" height="50" as="geometry" />
        </mxCell>
        <mxCell id="OFVXbDUbEy__xwBodsIL-3" value="" style="endArrow=none;html=1;rounded=0;" edge="1" parent="1" source="OFVXbDUbEy__xwBodsIL-2" target="OFVXbDUbEy__xwBodsIL-1">
          <mxGeometry width="50" height="50" relative="1" as="geometry">
            <mxPoint x="517" y="300" as="sourcePoint" />
            <mxPoint x="567" y="250" as="targetPoint" />
          </mxGeometry>
        </mxCell>
        <mxCell id="OFVXbDUbEy__xwBodsIL-5" value="Encaminhar&lt;div&gt;E-mail&lt;/div&gt;" style="ellipse;whiteSpace=wrap;html=1;" vertex="1" parent="1">
          <mxGeometry x="137" y="105" width="120" height="50" as="geometry" />
        </mxCell>
        <mxCell id="OFVXbDUbEy__xwBodsIL-8" value="Editar&lt;div&gt;Perfil&lt;/div&gt;" style="ellipse;whiteSpace=wrap;html=1;" vertex="1" parent="1">
          <mxGeometry x="367" y="120" width="120" height="50" as="geometry" />
        </mxCell>
        <mxCell id="OFVXbDUbEy__xwBodsIL-9" value="Redefinir&lt;div&gt;Senha&lt;/div&gt;" style="ellipse;whiteSpace=wrap;html=1;" vertex="1" parent="1">
          <mxGeometry x="367" y="180" width="120" height="50" as="geometry" />
        </mxCell>
        <mxCell id="OFVXbDUbEy__xwBodsIL-10" value="" style="endArrow=none;html=1;rounded=0;exitX=1;exitY=0.5;exitDx=0;exitDy=0;" edge="1" parent="1" source="OFVXbDUbEy__xwBodsIL-8" target="OFVXbDUbEy__xwBodsIL-1">
          <mxGeometry width="50" height="50" relative="1" as="geometry">
            <mxPoint x="527" y="310" as="sourcePoint" />
            <mxPoint x="577" y="260" as="targetPoint" />
          </mxGeometry>
        </mxCell>
        <mxCell id="OFVXbDUbEy__xwBodsIL-11" value="" style="endArrow=none;html=1;rounded=0;" edge="1" parent="1" source="OFVXbDUbEy__xwBodsIL-9" target="OFVXbDUbEy__xwBodsIL-1">
          <mxGeometry width="50" height="50" relative="1" as="geometry">
            <mxPoint x="527" y="310" as="sourcePoint" />
            <mxPoint x="577" y="260" as="targetPoint" />
          </mxGeometry>
        </mxCell>
        <mxCell id="OFVXbDUbEy__xwBodsIL-13" value="&amp;lt;&amp;lt;include&amp;gt;&amp;gt;" style="endArrow=classic;html=1;rounded=0;entryX=0.5;entryY=1;entryDx=0;entryDy=0;exitX=0;exitY=0.5;exitDx=0;exitDy=0;" edge="1" parent="1" source="OFVXbDUbEy__xwBodsIL-9" target="OFVXbDUbEy__xwBodsIL-5">
          <mxGeometry width="50" height="50" relative="1" as="geometry">
            <mxPoint x="527" y="310" as="sourcePoint" />
            <mxPoint x="577" y="260" as="targetPoint" />
          </mxGeometry>
        </mxCell>
        <mxCell id="OFVXbDUbEy__xwBodsIL-14" value="&amp;lt;&amp;lt;include&amp;gt;&amp;gt;" style="endArrow=classic;html=1;rounded=0;exitX=0;exitY=0.5;exitDx=0;exitDy=0;entryX=1.002;entryY=0.695;entryDx=0;entryDy=0;entryPerimeter=0;" edge="1" parent="1" source="OFVXbDUbEy__xwBodsIL-8" target="OFVXbDUbEy__xwBodsIL-5">
          <mxGeometry width="50" height="50" relative="1" as="geometry">
            <mxPoint x="417" y="330" as="sourcePoint" />
            <mxPoint x="247" y="280" as="targetPoint" />
          </mxGeometry>
        </mxCell>
        <mxCell id="OFVXbDUbEy__xwBodsIL-15" value="&amp;lt;&amp;lt;include&amp;gt;&amp;gt;" style="endArrow=classic;html=1;rounded=0;entryX=0.68;entryY=0.055;entryDx=0;entryDy=0;exitX=0;exitY=0.5;exitDx=0;exitDy=0;entryPerimeter=0;" edge="1" parent="1" source="OFVXbDUbEy__xwBodsIL-2" target="OFVXbDUbEy__xwBodsIL-5">
          <mxGeometry width="50" height="50" relative="1" as="geometry">
            <mxPoint x="737" y="350" as="sourcePoint" />
            <mxPoint x="567" y="300" as="targetPoint" />
          </mxGeometry>
        </mxCell>
        <mxCell id="OFVXbDUbEy__xwBodsIL-17" value="Logar&lt;div&gt;Usuário&lt;/div&gt;" style="ellipse;whiteSpace=wrap;html=1;" vertex="1" parent="1">
          <mxGeometry x="670" y="30" width="120" height="50" as="geometry" />
        </mxCell>
        <mxCell id="OFVXbDUbEy__xwBodsIL-18" value="Deslogar&lt;div&gt;Usuário&lt;/div&gt;" style="ellipse;whiteSpace=wrap;html=1;" vertex="1" parent="1">
          <mxGeometry x="667" y="120" width="120" height="50" as="geometry" />
        </mxCell>
        <mxCell id="OFVXbDUbEy__xwBodsIL-19" value="Solicitar&lt;div&gt;Token de&amp;nbsp;&lt;/div&gt;&lt;div&gt;Acesso&lt;/div&gt;" style="ellipse;whiteSpace=wrap;html=1;" vertex="1" parent="1">
          <mxGeometry x="807" y="80" width="120" height="50" as="geometry" />
        </mxCell>
        <mxCell id="OFVXbDUbEy__xwBodsIL-20" value="" style="endArrow=none;html=1;rounded=0;entryX=0;entryY=0.5;entryDx=0;entryDy=0;" edge="1" parent="1" source="OFVXbDUbEy__xwBodsIL-1" target="OFVXbDUbEy__xwBodsIL-18">
          <mxGeometry width="50" height="50" relative="1" as="geometry">
            <mxPoint x="507" y="472" as="sourcePoint" />
            <mxPoint x="601" y="420" as="targetPoint" />
          </mxGeometry>
        </mxCell>
        <mxCell id="OFVXbDUbEy__xwBodsIL-22" value="" style="endArrow=none;html=1;rounded=0;entryX=0.043;entryY=0.727;entryDx=0;entryDy=0;entryPerimeter=0;" edge="1" parent="1" source="OFVXbDUbEy__xwBodsIL-1" target="OFVXbDUbEy__xwBodsIL-17">
          <mxGeometry width="50" height="50" relative="1" as="geometry">
            <mxPoint x="577" y="512" as="sourcePoint" />
            <mxPoint x="667" y="55" as="targetPoint" />
          </mxGeometry>
        </mxCell>
        <mxCell id="OFVXbDUbEy__xwBodsIL-23" value="&amp;lt;&amp;lt;include&amp;gt;&amp;gt;" style="endArrow=classic;html=1;rounded=0;entryX=0.5;entryY=0;entryDx=0;entryDy=0;exitX=0.992;exitY=0.727;exitDx=0;exitDy=0;exitPerimeter=0;" edge="1" parent="1" source="OFVXbDUbEy__xwBodsIL-17" target="OFVXbDUbEy__xwBodsIL-19">
          <mxGeometry width="50" height="50" relative="1" as="geometry">
            <mxPoint x="787" y="55" as="sourcePoint" />
            <mxPoint x="697" y="370" as="targetPoint" />
          </mxGeometry>
        </mxCell>
        <mxCell id="OFVXbDUbEy__xwBodsIL-24" value="Acessar&lt;div&gt;módulo de&lt;/div&gt;&lt;div&gt;carona&lt;/div&gt;" style="ellipse;whiteSpace=wrap;html=1;" vertex="1" parent="1">
          <mxGeometry x="480" y="230" width="120" height="50" as="geometry" />
        </mxCell>
        <mxCell id="OFVXbDUbEy__xwBodsIL-25" value="" style="endArrow=none;html=1;rounded=0;" edge="1" parent="1" source="OFVXbDUbEy__xwBodsIL-24">
          <mxGeometry width="50" height="50" relative="1" as="geometry">
            <mxPoint x="537" y="462" as="sourcePoint" />
            <mxPoint x="557" y="180" as="targetPoint" />
          </mxGeometry>
        </mxCell>
        <mxCell id="OFVXbDUbEy__xwBodsIL-27" value="Gerenciar&lt;div&gt;carona&lt;/div&gt;" style="ellipse;whiteSpace=wrap;html=1;" vertex="1" parent="1">
          <mxGeometry x="257" y="240" width="120" height="50" as="geometry" />
        </mxCell>
        <mxCell id="OFVXbDUbEy__xwBodsIL-28" value="Buscar&lt;div&gt;carona&lt;/div&gt;" style="ellipse;whiteSpace=wrap;html=1;" vertex="1" parent="1">
          <mxGeometry x="337" y="300" width="120" height="50" as="geometry" />
        </mxCell>
        <mxCell id="OFVXbDUbEy__xwBodsIL-29" value="&amp;lt;&amp;lt;extend&amp;gt;&amp;gt;" style="endArrow=classic;html=1;rounded=0;entryX=0;entryY=0.5;entryDx=0;entryDy=0;exitX=1;exitY=0.5;exitDx=0;exitDy=0;" edge="1" parent="1" source="OFVXbDUbEy__xwBodsIL-27" target="OFVXbDUbEy__xwBodsIL-24">
          <mxGeometry width="50" height="50" relative="1" as="geometry">
            <mxPoint x="627" y="450" as="sourcePoint" />
            <mxPoint x="457" y="400" as="targetPoint" />
          </mxGeometry>
        </mxCell>
        <mxCell id="OFVXbDUbEy__xwBodsIL-30" value="&amp;lt;&amp;lt;extend&amp;gt;&amp;gt;" style="endArrow=classic;html=1;rounded=0;entryX=0.246;entryY=0.967;entryDx=0;entryDy=0;entryPerimeter=0;" edge="1" parent="1" source="OFVXbDUbEy__xwBodsIL-28" target="OFVXbDUbEy__xwBodsIL-24">
          <mxGeometry width="50" height="50" relative="1" as="geometry">
            <mxPoint x="477" y="315" as="sourcePoint" />
            <mxPoint x="597" y="390" as="targetPoint" />
          </mxGeometry>
        </mxCell>
        <mxCell id="OFVXbDUbEy__xwBodsIL-31" value="Verificar&lt;div&gt;contato do&lt;/div&gt;&lt;div&gt;motorista&lt;/div&gt;" style="ellipse;whiteSpace=wrap;html=1;" vertex="1" parent="1">
          <mxGeometry x="137" y="280" width="120" height="50" as="geometry" />
        </mxCell>
        <mxCell id="OFVXbDUbEy__xwBodsIL-32" value="&amp;lt;&amp;lt;extend&amp;gt;&amp;gt;" style="endArrow=classic;html=1;rounded=0;entryX=0;entryY=0.5;entryDx=0;entryDy=0;exitX=1;exitY=0.5;exitDx=0;exitDy=0;" edge="1" parent="1" source="OFVXbDUbEy__xwBodsIL-31" target="OFVXbDUbEy__xwBodsIL-28">
          <mxGeometry width="50" height="50" relative="1" as="geometry">
            <mxPoint x="927" y="540" as="sourcePoint" />
            <mxPoint x="757" y="490" as="targetPoint" />
          </mxGeometry>
        </mxCell>
        <mxCell id="OFVXbDUbEy__xwBodsIL-33" value="Fazer&lt;div&gt;denúncia&lt;/div&gt;" style="ellipse;whiteSpace=wrap;html=1;" vertex="1" parent="1">
          <mxGeometry x="767" y="180" width="120" height="50" as="geometry" />
        </mxCell>
        <mxCell id="OFVXbDUbEy__xwBodsIL-34" value="" style="endArrow=none;html=1;rounded=0;exitX=0;exitY=0.5;exitDx=0;exitDy=0;" edge="1" parent="1" source="OFVXbDUbEy__xwBodsIL-33" target="OFVXbDUbEy__xwBodsIL-1">
          <mxGeometry width="50" height="50" relative="1" as="geometry">
            <mxPoint x="627" y="462" as="sourcePoint" />
            <mxPoint x="721" y="410" as="targetPoint" />
          </mxGeometry>
        </mxCell>
        <mxCell id="OFVXbDUbEy__xwBodsIL-36" value="Acessar&lt;div&gt;módulo de achados e perdidos&lt;/div&gt;" style="ellipse;whiteSpace=wrap;html=1;" vertex="1" parent="1">
          <mxGeometry x="627" y="220" width="120" height="50" as="geometry" />
        </mxCell>
        <mxCell id="OFVXbDUbEy__xwBodsIL-37" value="Gerenciar itens perdidos" style="ellipse;whiteSpace=wrap;html=1;" vertex="1" parent="1">
          <mxGeometry x="767" y="320" width="120" height="50" as="geometry" />
        </mxCell>
        <mxCell id="OFVXbDUbEy__xwBodsIL-38" value="Gerenciar itens encontrados" style="ellipse;whiteSpace=wrap;html=1;" vertex="1" parent="1">
          <mxGeometry x="817" y="250" width="120" height="50" as="geometry" />
        </mxCell>
        <mxCell id="OFVXbDUbEy__xwBodsIL-39" value="&amp;lt;&amp;lt;extend&amp;gt;&amp;gt;" style="endArrow=classic;html=1;rounded=0;entryX=0.73;entryY=0.936;entryDx=0;entryDy=0;exitX=0;exitY=0;exitDx=0;exitDy=0;entryPerimeter=0;" edge="1" parent="1" source="OFVXbDUbEy__xwBodsIL-37" target="OFVXbDUbEy__xwBodsIL-36">
          <mxGeometry width="50" height="50" relative="1" as="geometry">
            <mxPoint x="1147" y="620" as="sourcePoint" />
            <mxPoint x="977" y="570" as="targetPoint" />
          </mxGeometry>
        </mxCell>
        <mxCell id="OFVXbDUbEy__xwBodsIL-40" value="&amp;lt;&amp;lt;extend&amp;gt;&amp;gt;" style="endArrow=classic;html=1;rounded=0;entryX=0.966;entryY=0.729;entryDx=0;entryDy=0;entryPerimeter=0;" edge="1" parent="1" source="OFVXbDUbEy__xwBodsIL-38" target="OFVXbDUbEy__xwBodsIL-36">
          <mxGeometry width="50" height="50" relative="1" as="geometry">
            <mxPoint x="997" y="485" as="sourcePoint" />
            <mxPoint x="1117" y="560" as="targetPoint" />
          </mxGeometry>
        </mxCell>
        <mxCell id="OFVXbDUbEy__xwBodsIL-42" value="" style="endArrow=none;html=1;rounded=0;exitX=0.275;exitY=-0.024;exitDx=0;exitDy=0;exitPerimeter=0;" edge="1" parent="1" source="OFVXbDUbEy__xwBodsIL-36">
          <mxGeometry width="50" height="50" relative="1" as="geometry">
            <mxPoint x="437" y="472" as="sourcePoint" />
            <mxPoint x="597" y="160" as="targetPoint" />
          </mxGeometry>
        </mxCell>
        <mxCell id="OFVXbDUbEy__xwBodsIL-43" value="Sistema" style="shape=umlActor;verticalLabelPosition=bottom;verticalAlign=top;html=1;outlineConnect=0;" vertex="1" parent="1">
          <mxGeometry x="182" y="390" width="30" height="60" as="geometry" />
        </mxCell>
        <mxCell id="OFVXbDUbEy__xwBodsIL-44" value="Notificar&lt;div&gt;usuário&lt;/div&gt;" style="ellipse;whiteSpace=wrap;html=1;" vertex="1" parent="1">
          <mxGeometry x="267" y="370" width="120" height="50" as="geometry" />
        </mxCell>
        <mxCell id="OFVXbDUbEy__xwBodsIL-47" value="" style="endArrow=none;html=1;rounded=0;entryX=0;entryY=0.5;entryDx=0;entryDy=0;" edge="1" parent="1" source="OFVXbDUbEy__xwBodsIL-43" target="OFVXbDUbEy__xwBodsIL-44">
          <mxGeometry width="50" height="50" relative="1" as="geometry">
            <mxPoint x="367" y="552" as="sourcePoint" />
            <mxPoint x="461" y="500" as="targetPoint" />
          </mxGeometry>
        </mxCell>
        <mxCell id="OFVXbDUbEy__xwBodsIL-48" value="Notificar&lt;div&gt;item encontrado&lt;/div&gt;" style="ellipse;whiteSpace=wrap;html=1;" vertex="1" parent="1">
          <mxGeometry x="267" y="450" width="120" height="50" as="geometry" />
        </mxCell>
        <mxCell id="OFVXbDUbEy__xwBodsIL-49" value="" style="endArrow=none;html=1;rounded=0;entryX=0;entryY=0;entryDx=0;entryDy=0;" edge="1" parent="1" source="OFVXbDUbEy__xwBodsIL-43" target="OFVXbDUbEy__xwBodsIL-48">
          <mxGeometry width="50" height="50" relative="1" as="geometry">
            <mxPoint x="527" y="512" as="sourcePoint" />
            <mxPoint x="621" y="460" as="targetPoint" />
          </mxGeometry>
        </mxCell>
        <mxCell id="OFVXbDUbEy__xwBodsIL-50" value="Administrador" style="shape=umlActor;verticalLabelPosition=bottom;verticalAlign=top;html=1;outlineConnect=0;" vertex="1" parent="1">
          <mxGeometry x="510" y="390" width="30" height="60" as="geometry" />
        </mxCell>
        <mxCell id="OFVXbDUbEy__xwBodsIL-51" value="Gerenciar&lt;div&gt;usuários&lt;/div&gt;" style="ellipse;whiteSpace=wrap;html=1;" vertex="1" parent="1">
          <mxGeometry x="627" y="360" width="120" height="50" as="geometry" />
        </mxCell>
        <mxCell id="OFVXbDUbEy__xwBodsIL-52" value="" style="endArrow=none;html=1;rounded=0;entryX=0;entryY=0.5;entryDx=0;entryDy=0;" edge="1" parent="1" source="OFVXbDUbEy__xwBodsIL-50" target="OFVXbDUbEy__xwBodsIL-51">
          <mxGeometry width="50" height="50" relative="1" as="geometry">
            <mxPoint x="772" y="622" as="sourcePoint" />
            <mxPoint x="866" y="570" as="targetPoint" />
          </mxGeometry>
        </mxCell>
        <mxCell id="OFVXbDUbEy__xwBodsIL-53" value="Gerenciar&lt;div&gt;denúncias&lt;/div&gt;" style="ellipse;whiteSpace=wrap;html=1;" vertex="1" parent="1">
          <mxGeometry x="627" y="450" width="120" height="50" as="geometry" />
        </mxCell>
        <mxCell id="OFVXbDUbEy__xwBodsIL-54" value="" style="endArrow=none;html=1;rounded=0;entryX=0;entryY=0;entryDx=0;entryDy=0;" edge="1" parent="1" source="OFVXbDUbEy__xwBodsIL-50" target="OFVXbDUbEy__xwBodsIL-53">
          <mxGeometry width="50" height="50" relative="1" as="geometry">
            <mxPoint x="932" y="582" as="sourcePoint" />
            <mxPoint x="1026" y="530" as="targetPoint" />
          </mxGeometry>
        </mxCell>
      </root>
    </mxGraphModel>
  </diagram>
  <diagram name="Página-3" id="ALGFiaH1OWmtFm5F953q">
    <mxGraphModel dx="996" dy="527" grid="1" gridSize="10" guides="1" tooltips="1" connect="1" arrows="1" fold="1" page="1" pageScale="1" pageWidth="1169" pageHeight="827" math="0" shadow="0">
      <root>
        <mxCell id="phtEZ8SM6Q5iL5PgTT1c-0" />
        <mxCell id="phtEZ8SM6Q5iL5PgTT1c-1" parent="phtEZ8SM6Q5iL5PgTT1c-0" />
        <mxCell id="phtEZ8SM6Q5iL5PgTT1c-14" value="Deslogar&lt;div&gt;Usuário&lt;/div&gt;" style="ellipse;whiteSpace=wrap;html=1;" vertex="1" parent="phtEZ8SM6Q5iL5PgTT1c-1">
          <mxGeometry x="540" y="470" width="120" height="50" as="geometry" />
        </mxCell>
        <mxCell id="phtEZ8SM6Q5iL5PgTT1c-16" value="" style="endArrow=none;html=1;rounded=0;" edge="1" parent="phtEZ8SM6Q5iL5PgTT1c-1" target="phtEZ8SM6Q5iL5PgTT1c-14">
          <mxGeometry width="50" height="50" relative="1" as="geometry">
            <mxPoint x="450" y="360" as="sourcePoint" />
            <mxPoint x="274" y="830" as="targetPoint" />
          </mxGeometry>
        </mxCell>
        <mxCell id="phtEZ8SM6Q5iL5PgTT1c-19" value="Acessar&lt;div&gt;módulo de&lt;/div&gt;&lt;div&gt;carona&lt;/div&gt;" style="ellipse;whiteSpace=wrap;html=1;" vertex="1" parent="phtEZ8SM6Q5iL5PgTT1c-1">
          <mxGeometry x="130" y="320" width="120" height="50" as="geometry" />
        </mxCell>
        <mxCell id="phtEZ8SM6Q5iL5PgTT1c-20" value="" style="endArrow=none;html=1;rounded=0;" edge="1" parent="phtEZ8SM6Q5iL5PgTT1c-1" source="phtEZ8SM6Q5iL5PgTT1c-19" target="dIEvIKmAHIGR60qmgrf2-18">
          <mxGeometry width="50" height="50" relative="1" as="geometry">
            <mxPoint x="550" y="742" as="sourcePoint" />
            <mxPoint x="570" y="460" as="targetPoint" />
          </mxGeometry>
        </mxCell>
        <mxCell id="phtEZ8SM6Q5iL5PgTT1c-21" value="Gerenciar&lt;div&gt;carona&lt;/div&gt;" style="ellipse;whiteSpace=wrap;html=1;" vertex="1" parent="phtEZ8SM6Q5iL5PgTT1c-1">
          <mxGeometry x="20" y="410" width="120" height="50" as="geometry" />
        </mxCell>
        <mxCell id="phtEZ8SM6Q5iL5PgTT1c-22" value="Buscar&lt;div&gt;carona&lt;/div&gt;" style="ellipse;whiteSpace=wrap;html=1;" vertex="1" parent="phtEZ8SM6Q5iL5PgTT1c-1">
          <mxGeometry x="160" y="440" width="120" height="50" as="geometry" />
        </mxCell>
        <mxCell id="phtEZ8SM6Q5iL5PgTT1c-23" value="&amp;lt;&amp;lt;extend&amp;gt;&amp;gt;" style="endArrow=classic;html=1;rounded=0;entryX=0;entryY=1;entryDx=0;entryDy=0;exitX=0.5;exitY=0;exitDx=0;exitDy=0;" edge="1" parent="phtEZ8SM6Q5iL5PgTT1c-1" source="phtEZ8SM6Q5iL5PgTT1c-21" target="phtEZ8SM6Q5iL5PgTT1c-19">
          <mxGeometry width="50" height="50" relative="1" as="geometry">
            <mxPoint x="640" y="730" as="sourcePoint" />
            <mxPoint x="470" y="680" as="targetPoint" />
          </mxGeometry>
        </mxCell>
        <mxCell id="phtEZ8SM6Q5iL5PgTT1c-24" value="&amp;lt;&amp;lt;extend&amp;gt;&amp;gt;" style="endArrow=classic;html=1;rounded=0;entryX=0.79;entryY=0.952;entryDx=0;entryDy=0;entryPerimeter=0;" edge="1" parent="phtEZ8SM6Q5iL5PgTT1c-1" source="phtEZ8SM6Q5iL5PgTT1c-22" target="phtEZ8SM6Q5iL5PgTT1c-19">
          <mxGeometry width="50" height="50" relative="1" as="geometry">
            <mxPoint x="490" y="595" as="sourcePoint" />
            <mxPoint x="610" y="670" as="targetPoint" />
          </mxGeometry>
        </mxCell>
        <mxCell id="phtEZ8SM6Q5iL5PgTT1c-25" value="Verificar&lt;div&gt;contato do&lt;/div&gt;&lt;div&gt;motorista&lt;/div&gt;" style="ellipse;whiteSpace=wrap;html=1;" vertex="1" parent="phtEZ8SM6Q5iL5PgTT1c-1">
          <mxGeometry x="40" y="560" width="120" height="50" as="geometry" />
        </mxCell>
        <mxCell id="phtEZ8SM6Q5iL5PgTT1c-26" value="&amp;lt;&amp;lt;extend&amp;gt;&amp;gt;" style="endArrow=classic;html=1;rounded=0;entryX=0.5;entryY=1;entryDx=0;entryDy=0;exitX=0.5;exitY=0;exitDx=0;exitDy=0;" edge="1" parent="phtEZ8SM6Q5iL5PgTT1c-1" source="phtEZ8SM6Q5iL5PgTT1c-25" target="phtEZ8SM6Q5iL5PgTT1c-22">
          <mxGeometry width="50" height="50" relative="1" as="geometry">
            <mxPoint x="940" y="820" as="sourcePoint" />
            <mxPoint x="770" y="770" as="targetPoint" />
          </mxGeometry>
        </mxCell>
        <mxCell id="phtEZ8SM6Q5iL5PgTT1c-27" value="Fazer&lt;div&gt;denúncia&lt;/div&gt;" style="ellipse;whiteSpace=wrap;html=1;" vertex="1" parent="phtEZ8SM6Q5iL5PgTT1c-1">
          <mxGeometry x="410" y="520" width="120" height="50" as="geometry" />
        </mxCell>
        <mxCell id="phtEZ8SM6Q5iL5PgTT1c-28" value="" style="endArrow=none;html=1;rounded=0;exitX=0.317;exitY=0.024;exitDx=0;exitDy=0;exitPerimeter=0;" edge="1" parent="phtEZ8SM6Q5iL5PgTT1c-1" source="phtEZ8SM6Q5iL5PgTT1c-27">
          <mxGeometry width="50" height="50" relative="1" as="geometry">
            <mxPoint x="300" y="872" as="sourcePoint" />
            <mxPoint x="430" y="390" as="targetPoint" />
          </mxGeometry>
        </mxCell>
        <mxCell id="phtEZ8SM6Q5iL5PgTT1c-29" value="Acessar&lt;div&gt;módulo de achados e perdidos&lt;/div&gt;" style="ellipse;whiteSpace=wrap;html=1;" vertex="1" parent="phtEZ8SM6Q5iL5PgTT1c-1">
          <mxGeometry x="285" y="470" width="120" height="50" as="geometry" />
        </mxCell>
        <mxCell id="phtEZ8SM6Q5iL5PgTT1c-30" value="Gerenciar itens perdidos" style="ellipse;whiteSpace=wrap;html=1;" vertex="1" parent="phtEZ8SM6Q5iL5PgTT1c-1">
          <mxGeometry x="150" y="640" width="120" height="50" as="geometry" />
        </mxCell>
        <mxCell id="phtEZ8SM6Q5iL5PgTT1c-31" value="Gerenciar itens encontrados" style="ellipse;whiteSpace=wrap;html=1;" vertex="1" parent="phtEZ8SM6Q5iL5PgTT1c-1">
          <mxGeometry x="290" y="660" width="120" height="50" as="geometry" />
        </mxCell>
        <mxCell id="phtEZ8SM6Q5iL5PgTT1c-32" value="&amp;lt;&amp;lt;extend&amp;gt;&amp;gt;" style="endArrow=classic;html=1;rounded=0;entryX=0.078;entryY=0.864;entryDx=0;entryDy=0;exitX=0.5;exitY=0;exitDx=0;exitDy=0;entryPerimeter=0;" edge="1" parent="phtEZ8SM6Q5iL5PgTT1c-1" source="phtEZ8SM6Q5iL5PgTT1c-30" target="phtEZ8SM6Q5iL5PgTT1c-29">
          <mxGeometry width="50" height="50" relative="1" as="geometry">
            <mxPoint x="820" y="1030" as="sourcePoint" />
            <mxPoint x="650" y="980" as="targetPoint" />
          </mxGeometry>
        </mxCell>
        <mxCell id="phtEZ8SM6Q5iL5PgTT1c-33" value="&amp;lt;&amp;lt;extend&amp;gt;&amp;gt;" style="endArrow=classic;html=1;rounded=0;entryX=0.578;entryY=0.96;entryDx=0;entryDy=0;entryPerimeter=0;" edge="1" parent="phtEZ8SM6Q5iL5PgTT1c-1" source="phtEZ8SM6Q5iL5PgTT1c-31" target="phtEZ8SM6Q5iL5PgTT1c-29">
          <mxGeometry width="50" height="50" relative="1" as="geometry">
            <mxPoint x="670" y="895" as="sourcePoint" />
            <mxPoint x="790" y="970" as="targetPoint" />
          </mxGeometry>
        </mxCell>
        <mxCell id="phtEZ8SM6Q5iL5PgTT1c-34" value="" style="endArrow=none;html=1;rounded=0;exitX=0.425;exitY=0.048;exitDx=0;exitDy=0;exitPerimeter=0;" edge="1" parent="phtEZ8SM6Q5iL5PgTT1c-1" source="phtEZ8SM6Q5iL5PgTT1c-29">
          <mxGeometry width="50" height="50" relative="1" as="geometry">
            <mxPoint x="340" y="460" as="sourcePoint" />
            <mxPoint x="390" y="370" as="targetPoint" />
          </mxGeometry>
        </mxCell>
        <mxCell id="phtEZ8SM6Q5iL5PgTT1c-35" value="Sistema" style="shape=umlActor;verticalLabelPosition=bottom;verticalAlign=top;html=1;outlineConnect=0;" vertex="1" parent="phtEZ8SM6Q5iL5PgTT1c-1">
          <mxGeometry x="585" y="580" width="30" height="60" as="geometry" />
        </mxCell>
        <mxCell id="phtEZ8SM6Q5iL5PgTT1c-36" value="Notificar&lt;div&gt;usuário&lt;/div&gt;" style="ellipse;whiteSpace=wrap;html=1;" vertex="1" parent="phtEZ8SM6Q5iL5PgTT1c-1">
          <mxGeometry x="670" y="560" width="120" height="50" as="geometry" />
        </mxCell>
        <mxCell id="phtEZ8SM6Q5iL5PgTT1c-37" value="" style="endArrow=none;html=1;rounded=0;entryX=0;entryY=0.5;entryDx=0;entryDy=0;" edge="1" parent="phtEZ8SM6Q5iL5PgTT1c-1" source="phtEZ8SM6Q5iL5PgTT1c-35" target="phtEZ8SM6Q5iL5PgTT1c-36">
          <mxGeometry width="50" height="50" relative="1" as="geometry">
            <mxPoint x="770" y="742" as="sourcePoint" />
            <mxPoint x="864" y="690" as="targetPoint" />
          </mxGeometry>
        </mxCell>
        <mxCell id="phtEZ8SM6Q5iL5PgTT1c-38" value="Notificar&lt;div&gt;item encontrado&lt;/div&gt;" style="ellipse;whiteSpace=wrap;html=1;" vertex="1" parent="phtEZ8SM6Q5iL5PgTT1c-1">
          <mxGeometry x="670" y="640" width="120" height="50" as="geometry" />
        </mxCell>
        <mxCell id="phtEZ8SM6Q5iL5PgTT1c-39" value="" style="endArrow=none;html=1;rounded=0;entryX=0;entryY=0;entryDx=0;entryDy=0;" edge="1" parent="phtEZ8SM6Q5iL5PgTT1c-1" source="phtEZ8SM6Q5iL5PgTT1c-35" target="phtEZ8SM6Q5iL5PgTT1c-38">
          <mxGeometry width="50" height="50" relative="1" as="geometry">
            <mxPoint x="930" y="702" as="sourcePoint" />
            <mxPoint x="1024" y="650" as="targetPoint" />
          </mxGeometry>
        </mxCell>
        <mxCell id="phtEZ8SM6Q5iL5PgTT1c-40" value="Administrador" style="shape=umlActor;verticalLabelPosition=bottom;verticalAlign=top;html=1;outlineConnect=0;" vertex="1" parent="phtEZ8SM6Q5iL5PgTT1c-1">
          <mxGeometry x="560" y="280" width="30" height="60" as="geometry" />
        </mxCell>
        <mxCell id="phtEZ8SM6Q5iL5PgTT1c-41" value="Gerenciar&lt;div&gt;usuários&lt;/div&gt;" style="ellipse;whiteSpace=wrap;html=1;" vertex="1" parent="phtEZ8SM6Q5iL5PgTT1c-1">
          <mxGeometry x="677" y="250" width="120" height="50" as="geometry" />
        </mxCell>
        <mxCell id="phtEZ8SM6Q5iL5PgTT1c-42" value="" style="endArrow=none;html=1;rounded=0;entryX=0;entryY=0.5;entryDx=0;entryDy=0;" edge="1" parent="phtEZ8SM6Q5iL5PgTT1c-1" source="phtEZ8SM6Q5iL5PgTT1c-40" target="phtEZ8SM6Q5iL5PgTT1c-41">
          <mxGeometry width="50" height="50" relative="1" as="geometry">
            <mxPoint x="822" y="512" as="sourcePoint" />
            <mxPoint x="916" y="460" as="targetPoint" />
          </mxGeometry>
        </mxCell>
        <mxCell id="phtEZ8SM6Q5iL5PgTT1c-43" value="Gerenciar&lt;div&gt;denúncias&lt;/div&gt;" style="ellipse;whiteSpace=wrap;html=1;" vertex="1" parent="phtEZ8SM6Q5iL5PgTT1c-1">
          <mxGeometry x="677" y="340" width="120" height="50" as="geometry" />
        </mxCell>
        <mxCell id="phtEZ8SM6Q5iL5PgTT1c-44" value="" style="endArrow=none;html=1;rounded=0;entryX=0;entryY=0;entryDx=0;entryDy=0;" edge="1" parent="phtEZ8SM6Q5iL5PgTT1c-1" source="phtEZ8SM6Q5iL5PgTT1c-40" target="phtEZ8SM6Q5iL5PgTT1c-43">
          <mxGeometry width="50" height="50" relative="1" as="geometry">
            <mxPoint x="982" y="472" as="sourcePoint" />
            <mxPoint x="1076" y="420" as="targetPoint" />
          </mxGeometry>
        </mxCell>
        <mxCell id="dIEvIKmAHIGR60qmgrf2-0" value="Usuário" style="shape=umlActor;verticalLabelPosition=bottom;verticalAlign=top;html=1;outlineConnect=0;" vertex="1" parent="phtEZ8SM6Q5iL5PgTT1c-1">
          <mxGeometry x="480" y="90" width="30" height="60" as="geometry" />
        </mxCell>
        <mxCell id="dIEvIKmAHIGR60qmgrf2-4" value="Logar&lt;div&gt;Usuário&lt;/div&gt;" style="ellipse;whiteSpace=wrap;html=1;" vertex="1" parent="phtEZ8SM6Q5iL5PgTT1c-1">
          <mxGeometry x="570" y="80" width="120" height="50" as="geometry" />
        </mxCell>
        <mxCell id="dIEvIKmAHIGR60qmgrf2-5" value="Solicitar&lt;div&gt;Token de&amp;nbsp;&lt;/div&gt;&lt;div&gt;Acesso&lt;/div&gt;" style="ellipse;whiteSpace=wrap;html=1;" vertex="1" parent="phtEZ8SM6Q5iL5PgTT1c-1">
          <mxGeometry x="790" y="70" width="120" height="50" as="geometry" />
        </mxCell>
        <mxCell id="dIEvIKmAHIGR60qmgrf2-6" value="&amp;lt;&amp;lt;include&amp;gt;&amp;gt;" style="endArrow=classic;html=1;rounded=0;entryX=0;entryY=0.5;entryDx=0;entryDy=0;exitX=1;exitY=0.5;exitDx=0;exitDy=0;" edge="1" parent="phtEZ8SM6Q5iL5PgTT1c-1" source="dIEvIKmAHIGR60qmgrf2-4" target="dIEvIKmAHIGR60qmgrf2-5">
          <mxGeometry width="50" height="50" relative="1" as="geometry">
            <mxPoint x="737" y="75" as="sourcePoint" />
            <mxPoint x="647" y="390" as="targetPoint" />
          </mxGeometry>
        </mxCell>
        <mxCell id="dIEvIKmAHIGR60qmgrf2-7" value="" style="endArrow=none;html=1;rounded=0;entryX=0;entryY=0.5;entryDx=0;entryDy=0;exitX=1;exitY=0.3333333333333333;exitDx=0;exitDy=0;exitPerimeter=0;" edge="1" parent="phtEZ8SM6Q5iL5PgTT1c-1" source="dIEvIKmAHIGR60qmgrf2-0" target="dIEvIKmAHIGR60qmgrf2-4">
          <mxGeometry width="50" height="50" relative="1" as="geometry">
            <mxPoint x="532" y="129.99999999999997" as="sourcePoint" />
            <mxPoint x="620.1600000000001" y="80.35" as="targetPoint" />
          </mxGeometry>
        </mxCell>
        <mxCell id="dIEvIKmAHIGR60qmgrf2-8" value="&lt;font style=&quot;vertical-align: inherit;&quot; dir=&quot;auto&quot;&gt;&lt;font style=&quot;vertical-align: inherit;&quot; dir=&quot;auto&quot;&gt;Cadastrar&lt;/font&gt;&lt;/font&gt;&lt;div&gt;&lt;font style=&quot;vertical-align: inherit;&quot; dir=&quot;auto&quot;&gt;&lt;font style=&quot;vertical-align: inherit;&quot; dir=&quot;auto&quot;&gt;Conta&lt;/font&gt;&lt;/font&gt;&lt;/div&gt;" style="ellipse;whiteSpace=wrap;html=1;" vertex="1" parent="phtEZ8SM6Q5iL5PgTT1c-1">
          <mxGeometry x="250" y="50" width="120" height="50" as="geometry" />
        </mxCell>
        <mxCell id="dIEvIKmAHIGR60qmgrf2-9" value="Encaminhar&lt;div&gt;E-mail&lt;/div&gt;" style="ellipse;whiteSpace=wrap;html=1;" vertex="1" parent="phtEZ8SM6Q5iL5PgTT1c-1">
          <mxGeometry x="20" y="100" width="120" height="50" as="geometry" />
        </mxCell>
        <mxCell id="dIEvIKmAHIGR60qmgrf2-10" value="Editar&lt;div&gt;Perfil&lt;/div&gt;" style="ellipse;whiteSpace=wrap;html=1;" vertex="1" parent="phtEZ8SM6Q5iL5PgTT1c-1">
          <mxGeometry x="250" y="115" width="120" height="50" as="geometry" />
        </mxCell>
        <mxCell id="dIEvIKmAHIGR60qmgrf2-11" value="Redefinir&lt;div&gt;Senha&lt;/div&gt;" style="ellipse;whiteSpace=wrap;html=1;" vertex="1" parent="phtEZ8SM6Q5iL5PgTT1c-1">
          <mxGeometry x="250" y="175" width="120" height="50" as="geometry" />
        </mxCell>
        <mxCell id="dIEvIKmAHIGR60qmgrf2-12" value="&amp;lt;&amp;lt;include&amp;gt;&amp;gt;" style="endArrow=classic;html=1;rounded=0;entryX=0.5;entryY=1;entryDx=0;entryDy=0;exitX=0;exitY=0.5;exitDx=0;exitDy=0;" edge="1" parent="phtEZ8SM6Q5iL5PgTT1c-1" source="dIEvIKmAHIGR60qmgrf2-11" target="dIEvIKmAHIGR60qmgrf2-9">
          <mxGeometry width="50" height="50" relative="1" as="geometry">
            <mxPoint x="410" y="305" as="sourcePoint" />
            <mxPoint x="460" y="255" as="targetPoint" />
          </mxGeometry>
        </mxCell>
        <mxCell id="dIEvIKmAHIGR60qmgrf2-13" value="&amp;lt;&amp;lt;include&amp;gt;&amp;gt;" style="endArrow=classic;html=1;rounded=0;exitX=0;exitY=0.5;exitDx=0;exitDy=0;entryX=1.002;entryY=0.695;entryDx=0;entryDy=0;entryPerimeter=0;" edge="1" parent="phtEZ8SM6Q5iL5PgTT1c-1" source="dIEvIKmAHIGR60qmgrf2-10" target="dIEvIKmAHIGR60qmgrf2-9">
          <mxGeometry width="50" height="50" relative="1" as="geometry">
            <mxPoint x="300" y="325" as="sourcePoint" />
            <mxPoint x="130" y="275" as="targetPoint" />
          </mxGeometry>
        </mxCell>
        <mxCell id="dIEvIKmAHIGR60qmgrf2-14" value="&amp;lt;&amp;lt;include&amp;gt;&amp;gt;" style="endArrow=classic;html=1;rounded=0;entryX=0.68;entryY=0.055;entryDx=0;entryDy=0;exitX=0;exitY=0.5;exitDx=0;exitDy=0;entryPerimeter=0;" edge="1" parent="phtEZ8SM6Q5iL5PgTT1c-1" source="dIEvIKmAHIGR60qmgrf2-8" target="dIEvIKmAHIGR60qmgrf2-9">
          <mxGeometry width="50" height="50" relative="1" as="geometry">
            <mxPoint x="620" y="345" as="sourcePoint" />
            <mxPoint x="450" y="295" as="targetPoint" />
          </mxGeometry>
        </mxCell>
        <mxCell id="dIEvIKmAHIGR60qmgrf2-15" value="" style="endArrow=none;html=1;rounded=0;entryX=0;entryY=0.3333333333333333;entryDx=0;entryDy=0;entryPerimeter=0;" edge="1" parent="phtEZ8SM6Q5iL5PgTT1c-1" target="dIEvIKmAHIGR60qmgrf2-0">
          <mxGeometry width="50" height="50" relative="1" as="geometry">
            <mxPoint x="370.00304618570397" y="74.85" as="sourcePoint" />
            <mxPoint x="451.7370501680831" y="99.99892430227041" as="targetPoint" />
          </mxGeometry>
        </mxCell>
        <mxCell id="dIEvIKmAHIGR60qmgrf2-16" value="" style="endArrow=none;html=1;rounded=0;exitX=1;exitY=0.5;exitDx=0;exitDy=0;" edge="1" parent="phtEZ8SM6Q5iL5PgTT1c-1">
          <mxGeometry width="50" height="50" relative="1" as="geometry">
            <mxPoint x="369.9970501680831" y="135.9989243022704" as="sourcePoint" />
            <mxPoint x="480" y="110" as="targetPoint" />
          </mxGeometry>
        </mxCell>
        <mxCell id="dIEvIKmAHIGR60qmgrf2-17" value="" style="endArrow=none;html=1;rounded=0;" edge="1" parent="phtEZ8SM6Q5iL5PgTT1c-1">
          <mxGeometry width="50" height="50" relative="1" as="geometry">
            <mxPoint x="370" y="202.12277477868517" as="sourcePoint" />
            <mxPoint x="480" y="110" as="targetPoint" />
          </mxGeometry>
        </mxCell>
        <mxCell id="dIEvIKmAHIGR60qmgrf2-18" value="Usuário&lt;div&gt;Logado&lt;/div&gt;" style="shape=umlActor;verticalLabelPosition=bottom;verticalAlign=top;html=1;outlineConnect=0;" vertex="1" parent="phtEZ8SM6Q5iL5PgTT1c-1">
          <mxGeometry x="405" y="280" width="30" height="60" as="geometry" />
        </mxCell>
        <mxCell id="dIEvIKmAHIGR60qmgrf2-19" value="" style="endArrow=block;html=1;rounded=0;endFill=0;" edge="1" parent="phtEZ8SM6Q5iL5PgTT1c-1">
          <mxGeometry width="50" height="50" relative="1" as="geometry">
            <mxPoint x="430" y="270" as="sourcePoint" />
            <mxPoint x="470" y="170" as="targetPoint" />
          </mxGeometry>
        </mxCell>
        <mxCell id="dIEvIKmAHIGR60qmgrf2-20" value="" style="endArrow=block;html=1;rounded=0;endFill=0;" edge="1" parent="phtEZ8SM6Q5iL5PgTT1c-1">
          <mxGeometry width="50" height="50" relative="1" as="geometry">
            <mxPoint x="570" y="260" as="sourcePoint" />
            <mxPoint x="520" y="170" as="targetPoint" />
          </mxGeometry>
        </mxCell>
        <mxCell id="dIEvIKmAHIGR60qmgrf2-21" value="" style="endArrow=none;html=1;rounded=0;entryX=0.413;entryY=0.032;entryDx=0;entryDy=0;entryPerimeter=0;" edge="1" parent="phtEZ8SM6Q5iL5PgTT1c-1" target="phtEZ8SM6Q5iL5PgTT1c-14">
          <mxGeometry width="50" height="50" relative="1" as="geometry">
            <mxPoint x="580" y="370" as="sourcePoint" />
            <mxPoint x="923" y="665" as="targetPoint" />
          </mxGeometry>
        </mxCell>
      </root>
    </mxGraphModel>
  </diagram>
  <diagram name="Página-4" id="vjXqH2k-R8GanyETXrUx">
    <mxGraphModel grid="1" page="1" gridSize="10" guides="1" tooltips="1" connect="1" arrows="1" fold="1" pageScale="1" pageWidth="1169" pageHeight="827" math="0" shadow="0">
      <root>
        <mxCell id="eyK0FG1YZPY1StiQ6JNG-0" />
        <mxCell id="eyK0FG1YZPY1StiQ6JNG-1" parent="eyK0FG1YZPY1StiQ6JNG-0" />
        <mxCell id="eyK0FG1YZPY1StiQ6JNG-2" value="Deslogar&lt;div&gt;Usuário&lt;/div&gt;" style="ellipse;whiteSpace=wrap;html=1;" vertex="1" parent="eyK0FG1YZPY1StiQ6JNG-1">
          <mxGeometry x="550" y="380" width="120" height="50" as="geometry" />
        </mxCell>
        <mxCell id="eyK0FG1YZPY1StiQ6JNG-3" value="" style="endArrow=none;html=1;rounded=0;" edge="1" parent="eyK0FG1YZPY1StiQ6JNG-1" source="eyK0FG1YZPY1StiQ6JNG-45" target="eyK0FG1YZPY1StiQ6JNG-2">
          <mxGeometry width="50" height="50" relative="1" as="geometry">
            <mxPoint x="560" y="350" as="sourcePoint" />
            <mxPoint x="384" y="820" as="targetPoint" />
          </mxGeometry>
        </mxCell>
        <mxCell id="eyK0FG1YZPY1StiQ6JNG-4" value="Acessar&lt;div&gt;módulo de&lt;/div&gt;&lt;div&gt;carona&lt;/div&gt;" style="ellipse;whiteSpace=wrap;html=1;" vertex="1" parent="eyK0FG1YZPY1StiQ6JNG-1">
          <mxGeometry x="188" y="310" width="120" height="50" as="geometry" />
        </mxCell>
        <mxCell id="eyK0FG1YZPY1StiQ6JNG-5" value="" style="endArrow=none;html=1;rounded=0;" edge="1" parent="eyK0FG1YZPY1StiQ6JNG-1" source="eyK0FG1YZPY1StiQ6JNG-4" target="eyK0FG1YZPY1StiQ6JNG-45">
          <mxGeometry width="50" height="50" relative="1" as="geometry">
            <mxPoint x="608" y="732" as="sourcePoint" />
            <mxPoint x="628" y="450" as="targetPoint" />
          </mxGeometry>
        </mxCell>
        <mxCell id="eyK0FG1YZPY1StiQ6JNG-6" value="Gerenciar&lt;div&gt;carona&lt;/div&gt;" style="ellipse;whiteSpace=wrap;html=1;" vertex="1" parent="eyK0FG1YZPY1StiQ6JNG-1">
          <mxGeometry x="58" y="400" width="120" height="50" as="geometry" />
        </mxCell>
        <mxCell id="eyK0FG1YZPY1StiQ6JNG-7" value="Buscar&lt;div&gt;carona&lt;/div&gt;" style="ellipse;whiteSpace=wrap;html=1;" vertex="1" parent="eyK0FG1YZPY1StiQ6JNG-1">
          <mxGeometry x="218" y="430" width="120" height="50" as="geometry" />
        </mxCell>
        <mxCell id="eyK0FG1YZPY1StiQ6JNG-8" value="&amp;lt;&amp;lt;extend&amp;gt;&amp;gt;" style="endArrow=classic;html=1;rounded=0;entryX=0;entryY=1;entryDx=0;entryDy=0;exitX=0.5;exitY=0;exitDx=0;exitDy=0;" edge="1" parent="eyK0FG1YZPY1StiQ6JNG-1" target="eyK0FG1YZPY1StiQ6JNG-4">
          <mxGeometry width="50" height="50" relative="1" as="geometry">
            <mxPoint x="138" y="400" as="sourcePoint" />
            <mxPoint x="528" y="670" as="targetPoint" />
          </mxGeometry>
        </mxCell>
        <mxCell id="eyK0FG1YZPY1StiQ6JNG-9" value="&amp;lt;&amp;lt;extend&amp;gt;&amp;gt;" style="endArrow=classic;html=1;rounded=0;entryX=0.79;entryY=0.952;entryDx=0;entryDy=0;entryPerimeter=0;" edge="1" parent="eyK0FG1YZPY1StiQ6JNG-1" source="eyK0FG1YZPY1StiQ6JNG-7" target="eyK0FG1YZPY1StiQ6JNG-4">
          <mxGeometry width="50" height="50" relative="1" as="geometry">
            <mxPoint x="548" y="585" as="sourcePoint" />
            <mxPoint x="668" y="660" as="targetPoint" />
          </mxGeometry>
        </mxCell>
        <mxCell id="eyK0FG1YZPY1StiQ6JNG-10" value="Verificar&lt;div&gt;contato do&lt;/div&gt;&lt;div&gt;motorista&lt;/div&gt;" style="ellipse;whiteSpace=wrap;html=1;" vertex="1" parent="eyK0FG1YZPY1StiQ6JNG-1">
          <mxGeometry x="98" y="550" width="120" height="50" as="geometry" />
        </mxCell>
        <mxCell id="eyK0FG1YZPY1StiQ6JNG-11" value="&amp;lt;&amp;lt;extend&amp;gt;&amp;gt;" style="endArrow=classic;html=1;rounded=0;entryX=0.5;entryY=1;entryDx=0;entryDy=0;exitX=0.5;exitY=0;exitDx=0;exitDy=0;" edge="1" parent="eyK0FG1YZPY1StiQ6JNG-1" source="eyK0FG1YZPY1StiQ6JNG-10" target="eyK0FG1YZPY1StiQ6JNG-7">
          <mxGeometry width="50" height="50" relative="1" as="geometry">
            <mxPoint x="998" y="810" as="sourcePoint" />
            <mxPoint x="828" y="760" as="targetPoint" />
          </mxGeometry>
        </mxCell>
        <mxCell id="eyK0FG1YZPY1StiQ6JNG-12" value="Fazer&lt;div&gt;denúncia&lt;/div&gt;" style="ellipse;whiteSpace=wrap;html=1;" vertex="1" parent="eyK0FG1YZPY1StiQ6JNG-1">
          <mxGeometry x="468" y="510" width="120" height="50" as="geometry" />
        </mxCell>
        <mxCell id="eyK0FG1YZPY1StiQ6JNG-13" value="" style="endArrow=none;html=1;rounded=0;exitX=0.317;exitY=0.024;exitDx=0;exitDy=0;exitPerimeter=0;" edge="1" parent="eyK0FG1YZPY1StiQ6JNG-1" source="eyK0FG1YZPY1StiQ6JNG-12">
          <mxGeometry width="50" height="50" relative="1" as="geometry">
            <mxPoint x="358" y="862" as="sourcePoint" />
            <mxPoint x="488" y="380" as="targetPoint" />
          </mxGeometry>
        </mxCell>
        <mxCell id="eyK0FG1YZPY1StiQ6JNG-14" value="Acessar&lt;div&gt;módulo de perdidos&lt;/div&gt;" style="ellipse;whiteSpace=wrap;html=1;" vertex="1" parent="eyK0FG1YZPY1StiQ6JNG-1">
          <mxGeometry x="343" y="460" width="120" height="50" as="geometry" />
        </mxCell>
        <mxCell id="eyK0FG1YZPY1StiQ6JNG-15" value="Gerenciar itens perdidos" style="ellipse;whiteSpace=wrap;html=1;" vertex="1" parent="eyK0FG1YZPY1StiQ6JNG-1">
          <mxGeometry x="208" y="630" width="120" height="50" as="geometry" />
        </mxCell>
        <mxCell id="eyK0FG1YZPY1StiQ6JNG-17" value="&amp;lt;&amp;lt;extend&amp;gt;&amp;gt;" style="endArrow=classic;html=1;rounded=0;entryX=0.078;entryY=0.864;entryDx=0;entryDy=0;exitX=0.5;exitY=0;exitDx=0;exitDy=0;entryPerimeter=0;" edge="1" parent="eyK0FG1YZPY1StiQ6JNG-1" source="eyK0FG1YZPY1StiQ6JNG-15" target="eyK0FG1YZPY1StiQ6JNG-14">
          <mxGeometry width="50" height="50" relative="1" as="geometry">
            <mxPoint x="878" y="1020" as="sourcePoint" />
            <mxPoint x="708" y="970" as="targetPoint" />
          </mxGeometry>
        </mxCell>
        <mxCell id="eyK0FG1YZPY1StiQ6JNG-19" value="" style="endArrow=none;html=1;rounded=0;exitX=0.425;exitY=0.048;exitDx=0;exitDy=0;exitPerimeter=0;" edge="1" parent="eyK0FG1YZPY1StiQ6JNG-1" source="eyK0FG1YZPY1StiQ6JNG-14">
          <mxGeometry width="50" height="50" relative="1" as="geometry">
            <mxPoint x="398" y="450" as="sourcePoint" />
            <mxPoint x="448" y="360" as="targetPoint" />
          </mxGeometry>
        </mxCell>
        <mxCell id="eyK0FG1YZPY1StiQ6JNG-20" value="Sistema" style="shape=umlActor;verticalLabelPosition=bottom;verticalAlign=top;html=1;outlineConnect=0;" vertex="1" parent="eyK0FG1YZPY1StiQ6JNG-1">
          <mxGeometry x="695" y="570" width="30" height="60" as="geometry" />
        </mxCell>
        <mxCell id="eyK0FG1YZPY1StiQ6JNG-21" value="Notificar&lt;div&gt;usuário&lt;/div&gt;" style="ellipse;whiteSpace=wrap;html=1;" vertex="1" parent="eyK0FG1YZPY1StiQ6JNG-1">
          <mxGeometry x="780" y="550" width="120" height="50" as="geometry" />
        </mxCell>
        <mxCell id="eyK0FG1YZPY1StiQ6JNG-22" value="" style="endArrow=none;html=1;rounded=0;entryX=0;entryY=0.5;entryDx=0;entryDy=0;" edge="1" parent="eyK0FG1YZPY1StiQ6JNG-1" source="eyK0FG1YZPY1StiQ6JNG-20" target="eyK0FG1YZPY1StiQ6JNG-21">
          <mxGeometry width="50" height="50" relative="1" as="geometry">
            <mxPoint x="880" y="732" as="sourcePoint" />
            <mxPoint x="974" y="680" as="targetPoint" />
          </mxGeometry>
        </mxCell>
        <mxCell id="eyK0FG1YZPY1StiQ6JNG-25" value="Administrador" style="shape=umlActor;verticalLabelPosition=bottom;verticalAlign=top;html=1;outlineConnect=0;" vertex="1" parent="eyK0FG1YZPY1StiQ6JNG-1">
          <mxGeometry x="730" y="270" width="30" height="60" as="geometry" />
        </mxCell>
        <mxCell id="eyK0FG1YZPY1StiQ6JNG-26" value="Gerenciar&lt;div&gt;usuários&lt;/div&gt;" style="ellipse;whiteSpace=wrap;html=1;" vertex="1" parent="eyK0FG1YZPY1StiQ6JNG-1">
          <mxGeometry x="850" y="240" width="120" height="50" as="geometry" />
        </mxCell>
        <mxCell id="eyK0FG1YZPY1StiQ6JNG-27" value="" style="endArrow=none;html=1;rounded=0;entryX=0;entryY=0.5;entryDx=0;entryDy=0;" edge="1" parent="eyK0FG1YZPY1StiQ6JNG-1" source="eyK0FG1YZPY1StiQ6JNG-25" target="eyK0FG1YZPY1StiQ6JNG-26">
          <mxGeometry width="50" height="50" relative="1" as="geometry">
            <mxPoint x="1092" y="492" as="sourcePoint" />
            <mxPoint x="1186" y="440" as="targetPoint" />
          </mxGeometry>
        </mxCell>
        <mxCell id="eyK0FG1YZPY1StiQ6JNG-28" value="Gerenciar&lt;div&gt;denúncias&lt;/div&gt;" style="ellipse;whiteSpace=wrap;html=1;" vertex="1" parent="eyK0FG1YZPY1StiQ6JNG-1">
          <mxGeometry x="850" y="330" width="120" height="50" as="geometry" />
        </mxCell>
        <mxCell id="eyK0FG1YZPY1StiQ6JNG-29" value="" style="endArrow=none;html=1;rounded=0;entryX=0;entryY=0;entryDx=0;entryDy=0;" edge="1" parent="eyK0FG1YZPY1StiQ6JNG-1" source="eyK0FG1YZPY1StiQ6JNG-25" target="eyK0FG1YZPY1StiQ6JNG-28">
          <mxGeometry width="50" height="50" relative="1" as="geometry">
            <mxPoint x="1252" y="452" as="sourcePoint" />
            <mxPoint x="1346" y="400" as="targetPoint" />
          </mxGeometry>
        </mxCell>
        <mxCell id="eyK0FG1YZPY1StiQ6JNG-30" value="Usuário" style="shape=umlActor;verticalLabelPosition=bottom;verticalAlign=top;html=1;outlineConnect=0;" vertex="1" parent="eyK0FG1YZPY1StiQ6JNG-1">
          <mxGeometry x="590" y="80" width="30" height="60" as="geometry" />
        </mxCell>
        <mxCell id="eyK0FG1YZPY1StiQ6JNG-31" value="Logar&lt;div&gt;Usuário&lt;/div&gt;" style="ellipse;whiteSpace=wrap;html=1;" vertex="1" parent="eyK0FG1YZPY1StiQ6JNG-1">
          <mxGeometry x="680" y="70" width="120" height="50" as="geometry" />
        </mxCell>
        <mxCell id="eyK0FG1YZPY1StiQ6JNG-34" value="" style="endArrow=none;html=1;rounded=0;entryX=0;entryY=0.5;entryDx=0;entryDy=0;exitX=1;exitY=0.3333333333333333;exitDx=0;exitDy=0;exitPerimeter=0;" edge="1" parent="eyK0FG1YZPY1StiQ6JNG-1" source="eyK0FG1YZPY1StiQ6JNG-30" target="eyK0FG1YZPY1StiQ6JNG-31">
          <mxGeometry width="50" height="50" relative="1" as="geometry">
            <mxPoint x="642" y="119.99999999999997" as="sourcePoint" />
            <mxPoint x="730.1600000000001" y="70.35" as="targetPoint" />
          </mxGeometry>
        </mxCell>
        <mxCell id="eyK0FG1YZPY1StiQ6JNG-35" value="&lt;font style=&quot;vertical-align: inherit;&quot; dir=&quot;auto&quot;&gt;&lt;font style=&quot;vertical-align: inherit;&quot; dir=&quot;auto&quot;&gt;Cadastrar&lt;/font&gt;&lt;/font&gt;&lt;div&gt;&lt;font style=&quot;vertical-align: inherit;&quot; dir=&quot;auto&quot;&gt;&lt;font style=&quot;vertical-align: inherit;&quot; dir=&quot;auto&quot;&gt;Conta&lt;/font&gt;&lt;/font&gt;&lt;/div&gt;" style="ellipse;whiteSpace=wrap;html=1;" vertex="1" parent="eyK0FG1YZPY1StiQ6JNG-1">
          <mxGeometry x="360" y="40" width="120" height="50" as="geometry" />
        </mxCell>
        <mxCell id="eyK0FG1YZPY1StiQ6JNG-42" value="" style="endArrow=none;html=1;rounded=0;entryX=0;entryY=0.3333333333333333;entryDx=0;entryDy=0;entryPerimeter=0;" edge="1" parent="eyK0FG1YZPY1StiQ6JNG-1" target="eyK0FG1YZPY1StiQ6JNG-30">
          <mxGeometry width="50" height="50" relative="1" as="geometry">
            <mxPoint x="480.00304618570397" y="64.85" as="sourcePoint" />
            <mxPoint x="561.7370501680831" y="89.99892430227041" as="targetPoint" />
          </mxGeometry>
        </mxCell>
        <mxCell id="eyK0FG1YZPY1StiQ6JNG-43" value="" style="endArrow=none;html=1;rounded=0;exitX=0.9;exitY=0.28;exitDx=0;exitDy=0;exitPerimeter=0;" edge="1" parent="eyK0FG1YZPY1StiQ6JNG-1" source="cuuT_y_mcjqJbe3X_MZC-1">
          <mxGeometry width="50" height="50" relative="1" as="geometry">
            <mxPoint x="479.9970501680831" y="125.99892430227041" as="sourcePoint" />
            <mxPoint x="590" y="100" as="targetPoint" />
          </mxGeometry>
        </mxCell>
        <mxCell id="eyK0FG1YZPY1StiQ6JNG-44" value="" style="endArrow=none;html=1;rounded=0;exitX=0.008;exitY=0.3;exitDx=0;exitDy=0;exitPerimeter=0;" edge="1" parent="eyK0FG1YZPY1StiQ6JNG-1" source="cuuT_y_mcjqJbe3X_MZC-2">
          <mxGeometry width="50" height="50" relative="1" as="geometry">
            <mxPoint x="568" y="315" as="sourcePoint" />
            <mxPoint x="498" y="300" as="targetPoint" />
          </mxGeometry>
        </mxCell>
        <mxCell id="eyK0FG1YZPY1StiQ6JNG-45" value="Usuário&lt;div&gt;Logado&lt;/div&gt;" style="shape=umlActor;verticalLabelPosition=bottom;verticalAlign=top;html=1;outlineConnect=0;" vertex="1" parent="eyK0FG1YZPY1StiQ6JNG-1">
          <mxGeometry x="463" y="270" width="30" height="60" as="geometry" />
        </mxCell>
        <mxCell id="eyK0FG1YZPY1StiQ6JNG-46" value="" style="endArrow=block;html=1;rounded=0;endFill=0;" edge="1" parent="eyK0FG1YZPY1StiQ6JNG-1" source="eyK0FG1YZPY1StiQ6JNG-45">
          <mxGeometry width="50" height="50" relative="1" as="geometry">
            <mxPoint x="540" y="260" as="sourcePoint" />
            <mxPoint x="580" y="160" as="targetPoint" />
          </mxGeometry>
        </mxCell>
        <mxCell id="eyK0FG1YZPY1StiQ6JNG-47" value="" style="endArrow=block;html=1;rounded=0;endFill=0;exitX=0;exitY=0.3333333333333333;exitDx=0;exitDy=0;exitPerimeter=0;" edge="1" parent="eyK0FG1YZPY1StiQ6JNG-1" source="eyK0FG1YZPY1StiQ6JNG-25">
          <mxGeometry width="50" height="50" relative="1" as="geometry">
            <mxPoint x="830" y="250" as="sourcePoint" />
            <mxPoint x="630" y="160" as="targetPoint" />
          </mxGeometry>
        </mxCell>
        <mxCell id="eyK0FG1YZPY1StiQ6JNG-48" value="" style="endArrow=none;html=1;rounded=0;entryX=0.75;entryY=0.2;entryDx=0;entryDy=0;entryPerimeter=0;" edge="1" parent="eyK0FG1YZPY1StiQ6JNG-1" source="eyK0FG1YZPY1StiQ6JNG-25" target="eyK0FG1YZPY1StiQ6JNG-2">
          <mxGeometry width="50" height="50" relative="1" as="geometry">
            <mxPoint x="850" y="280" as="sourcePoint" />
            <mxPoint x="1033" y="655" as="targetPoint" />
          </mxGeometry>
        </mxCell>
        <mxCell id="cuuT_y_mcjqJbe3X_MZC-1" value="Redefinir&lt;div&gt;Senha&lt;/div&gt;" style="ellipse;whiteSpace=wrap;html=1;" vertex="1" parent="eyK0FG1YZPY1StiQ6JNG-1">
          <mxGeometry x="360" y="110" width="120" height="50" as="geometry" />
        </mxCell>
        <mxCell id="cuuT_y_mcjqJbe3X_MZC-2" value="Editar&lt;div&gt;Perfil&lt;/div&gt;" style="ellipse;whiteSpace=wrap;html=1;" vertex="1" parent="eyK0FG1YZPY1StiQ6JNG-1">
          <mxGeometry x="545" y="290" width="120" height="50" as="geometry" />
        </mxCell>
        <mxCell id="cuuT_y_mcjqJbe3X_MZC-3" value="" style="endArrow=none;html=1;rounded=0;entryX=0;entryY=0.3333333333333333;entryDx=0;entryDy=0;entryPerimeter=0;" edge="1" parent="eyK0FG1YZPY1StiQ6JNG-1" source="cuuT_y_mcjqJbe3X_MZC-2" target="eyK0FG1YZPY1StiQ6JNG-25">
          <mxGeometry width="50" height="50" relative="1" as="geometry">
            <mxPoint x="690" y="265.11" as="sourcePoint" />
            <mxPoint x="825.1237710797252" y="290.0012209883704" as="targetPoint" />
          </mxGeometry>
        </mxCell>
      </root>
    </mxGraphModel>
  </diagram>
  <diagram name="Página-5" id="kOytFKmRBlqJYB0hIF6R">
    <mxGraphModel dx="1426" dy="743" grid="1" gridSize="10" guides="1" tooltips="1" connect="1" arrows="1" fold="1" page="1" pageScale="1" pageWidth="1169" pageHeight="827" math="0" shadow="0">
      <root>
        <mxCell id="bPo1Ln7w32RRiAWdLkGR-0" />
        <mxCell id="bPo1Ln7w32RRiAWdLkGR-1" parent="bPo1Ln7w32RRiAWdLkGR-0" />
        <mxCell id="bPo1Ln7w32RRiAWdLkGR-2" value="Deslogar&lt;div&gt;Usuário&lt;/div&gt;" style="ellipse;whiteSpace=wrap;html=1;" vertex="1" parent="bPo1Ln7w32RRiAWdLkGR-1">
          <mxGeometry x="750" y="280" width="120" height="50" as="geometry" />
        </mxCell>
        <mxCell id="bPo1Ln7w32RRiAWdLkGR-3" value="" style="endArrow=none;html=1;rounded=0;" edge="1" parent="bPo1Ln7w32RRiAWdLkGR-1" target="bPo1Ln7w32RRiAWdLkGR-2" source="bPo1Ln7w32RRiAWdLkGR-35">
          <mxGeometry width="50" height="50" relative="1" as="geometry">
            <mxPoint x="560" y="350" as="sourcePoint" />
            <mxPoint x="384" y="820" as="targetPoint" />
          </mxGeometry>
        </mxCell>
        <mxCell id="bPo1Ln7w32RRiAWdLkGR-4" value="Acessar&lt;div&gt;módulo de&lt;/div&gt;&lt;div&gt;carona&lt;/div&gt;" style="ellipse;whiteSpace=wrap;html=1;" vertex="1" parent="bPo1Ln7w32RRiAWdLkGR-1">
          <mxGeometry x="240" y="310" width="120" height="50" as="geometry" />
        </mxCell>
        <mxCell id="bPo1Ln7w32RRiAWdLkGR-5" value="" style="endArrow=none;html=1;rounded=0;" edge="1" parent="bPo1Ln7w32RRiAWdLkGR-1" source="bPo1Ln7w32RRiAWdLkGR-4" target="bPo1Ln7w32RRiAWdLkGR-35">
          <mxGeometry width="50" height="50" relative="1" as="geometry">
            <mxPoint x="660" y="732" as="sourcePoint" />
            <mxPoint x="680" y="450" as="targetPoint" />
          </mxGeometry>
        </mxCell>
        <mxCell id="bPo1Ln7w32RRiAWdLkGR-6" value="Gerenciar&lt;div&gt;carona&lt;/div&gt;" style="ellipse;whiteSpace=wrap;html=1;" vertex="1" parent="bPo1Ln7w32RRiAWdLkGR-1">
          <mxGeometry x="110" y="400" width="120" height="50" as="geometry" />
        </mxCell>
        <mxCell id="bPo1Ln7w32RRiAWdLkGR-7" value="Buscar&lt;div&gt;carona&lt;/div&gt;" style="ellipse;whiteSpace=wrap;html=1;" vertex="1" parent="bPo1Ln7w32RRiAWdLkGR-1">
          <mxGeometry x="270" y="430" width="120" height="50" as="geometry" />
        </mxCell>
        <mxCell id="bPo1Ln7w32RRiAWdLkGR-8" value="&amp;lt;&amp;lt;extend&amp;gt;&amp;gt;" style="endArrow=classic;html=1;rounded=0;entryX=0;entryY=1;entryDx=0;entryDy=0;exitX=0.5;exitY=0;exitDx=0;exitDy=0;" edge="1" parent="bPo1Ln7w32RRiAWdLkGR-1" target="bPo1Ln7w32RRiAWdLkGR-4">
          <mxGeometry width="50" height="50" relative="1" as="geometry">
            <mxPoint x="190" y="400" as="sourcePoint" />
            <mxPoint x="580" y="670" as="targetPoint" />
          </mxGeometry>
        </mxCell>
        <mxCell id="bPo1Ln7w32RRiAWdLkGR-9" value="&amp;lt;&amp;lt;extend&amp;gt;&amp;gt;" style="endArrow=classic;html=1;rounded=0;entryX=0.79;entryY=0.952;entryDx=0;entryDy=0;entryPerimeter=0;" edge="1" parent="bPo1Ln7w32RRiAWdLkGR-1" source="bPo1Ln7w32RRiAWdLkGR-7" target="bPo1Ln7w32RRiAWdLkGR-4">
          <mxGeometry width="50" height="50" relative="1" as="geometry">
            <mxPoint x="600" y="585" as="sourcePoint" />
            <mxPoint x="720" y="660" as="targetPoint" />
          </mxGeometry>
        </mxCell>
        <mxCell id="bPo1Ln7w32RRiAWdLkGR-10" value="Verificar&lt;div&gt;contato do&lt;/div&gt;&lt;div&gt;motorista&lt;/div&gt;" style="ellipse;whiteSpace=wrap;html=1;" vertex="1" parent="bPo1Ln7w32RRiAWdLkGR-1">
          <mxGeometry x="150" y="550" width="120" height="50" as="geometry" />
        </mxCell>
        <mxCell id="bPo1Ln7w32RRiAWdLkGR-11" value="&amp;lt;&amp;lt;extend&amp;gt;&amp;gt;" style="endArrow=classic;html=1;rounded=0;entryX=0.258;entryY=1.02;entryDx=0;entryDy=0;exitX=0.5;exitY=0;exitDx=0;exitDy=0;entryPerimeter=0;" edge="1" parent="bPo1Ln7w32RRiAWdLkGR-1" source="bPo1Ln7w32RRiAWdLkGR-10" target="bPo1Ln7w32RRiAWdLkGR-7">
          <mxGeometry width="50" height="50" relative="1" as="geometry">
            <mxPoint x="1050" y="810" as="sourcePoint" />
            <mxPoint x="880" y="760" as="targetPoint" />
          </mxGeometry>
        </mxCell>
        <mxCell id="bPo1Ln7w32RRiAWdLkGR-12" value="Fazer&lt;div&gt;denúncia&lt;/div&gt;" style="ellipse;whiteSpace=wrap;html=1;" vertex="1" parent="bPo1Ln7w32RRiAWdLkGR-1">
          <mxGeometry x="730" y="200" width="120" height="50" as="geometry" />
        </mxCell>
        <mxCell id="bPo1Ln7w32RRiAWdLkGR-13" value="" style="endArrow=none;html=1;rounded=0;exitX=0.042;exitY=0.7;exitDx=0;exitDy=0;exitPerimeter=0;" edge="1" parent="bPo1Ln7w32RRiAWdLkGR-1" source="bPo1Ln7w32RRiAWdLkGR-12" target="bPo1Ln7w32RRiAWdLkGR-35">
          <mxGeometry width="50" height="50" relative="1" as="geometry">
            <mxPoint x="410" y="862" as="sourcePoint" />
            <mxPoint x="540" y="380" as="targetPoint" />
          </mxGeometry>
        </mxCell>
        <mxCell id="bPo1Ln7w32RRiAWdLkGR-14" value="Acessar&lt;div&gt;módulo de perdidos&lt;/div&gt;" style="ellipse;whiteSpace=wrap;html=1;" vertex="1" parent="bPo1Ln7w32RRiAWdLkGR-1">
          <mxGeometry x="730" y="370" width="120" height="50" as="geometry" />
        </mxCell>
        <mxCell id="bPo1Ln7w32RRiAWdLkGR-15" value="Gerenciar itens perdidos" style="ellipse;whiteSpace=wrap;html=1;" vertex="1" parent="bPo1Ln7w32RRiAWdLkGR-1">
          <mxGeometry x="890" y="440" width="120" height="50" as="geometry" />
        </mxCell>
        <mxCell id="bPo1Ln7w32RRiAWdLkGR-16" value="&amp;lt;&amp;lt;extend&amp;gt;&amp;gt;" style="endArrow=classic;html=1;rounded=0;exitX=0.058;exitY=0.24;exitDx=0;exitDy=0;exitPerimeter=0;" edge="1" parent="bPo1Ln7w32RRiAWdLkGR-1" source="bPo1Ln7w32RRiAWdLkGR-15" target="bPo1Ln7w32RRiAWdLkGR-14">
          <mxGeometry width="50" height="50" relative="1" as="geometry">
            <mxPoint x="930" y="1020" as="sourcePoint" />
            <mxPoint x="760" y="970" as="targetPoint" />
          </mxGeometry>
        </mxCell>
        <mxCell id="bPo1Ln7w32RRiAWdLkGR-17" value="" style="endArrow=none;html=1;rounded=0;exitX=0.225;exitY=0.14;exitDx=0;exitDy=0;exitPerimeter=0;" edge="1" parent="bPo1Ln7w32RRiAWdLkGR-1" source="bPo1Ln7w32RRiAWdLkGR-14" target="bPo1Ln7w32RRiAWdLkGR-35">
          <mxGeometry width="50" height="50" relative="1" as="geometry">
            <mxPoint x="450" y="450" as="sourcePoint" />
            <mxPoint x="500" y="360" as="targetPoint" />
          </mxGeometry>
        </mxCell>
        <mxCell id="bPo1Ln7w32RRiAWdLkGR-18" value="Sistema" style="shape=umlActor;verticalLabelPosition=bottom;verticalAlign=top;html=1;outlineConnect=0;" vertex="1" parent="bPo1Ln7w32RRiAWdLkGR-1">
          <mxGeometry x="840" y="530" width="30" height="60" as="geometry" />
        </mxCell>
        <mxCell id="bPo1Ln7w32RRiAWdLkGR-19" value="Notificar&lt;div&gt;usuário&lt;/div&gt;" style="ellipse;whiteSpace=wrap;html=1;" vertex="1" parent="bPo1Ln7w32RRiAWdLkGR-1">
          <mxGeometry x="925" y="550" width="120" height="50" as="geometry" />
        </mxCell>
        <mxCell id="bPo1Ln7w32RRiAWdLkGR-20" value="" style="endArrow=none;html=1;rounded=0;entryX=0;entryY=0.5;entryDx=0;entryDy=0;" edge="1" parent="bPo1Ln7w32RRiAWdLkGR-1" source="bPo1Ln7w32RRiAWdLkGR-18" target="bPo1Ln7w32RRiAWdLkGR-19">
          <mxGeometry width="50" height="50" relative="1" as="geometry">
            <mxPoint x="1025" y="692" as="sourcePoint" />
            <mxPoint x="1119" y="640" as="targetPoint" />
          </mxGeometry>
        </mxCell>
        <mxCell id="bPo1Ln7w32RRiAWdLkGR-21" value="Administrador" style="shape=umlActor;verticalLabelPosition=bottom;verticalAlign=top;html=1;outlineConnect=0;" vertex="1" parent="bPo1Ln7w32RRiAWdLkGR-1">
          <mxGeometry x="570" y="490" width="30" height="60" as="geometry" />
        </mxCell>
        <mxCell id="bPo1Ln7w32RRiAWdLkGR-22" value="Gerenciar&lt;div&gt;usuários&lt;/div&gt;" style="ellipse;whiteSpace=wrap;html=1;" vertex="1" parent="bPo1Ln7w32RRiAWdLkGR-1">
          <mxGeometry x="660" y="590" width="120" height="50" as="geometry" />
        </mxCell>
        <mxCell id="bPo1Ln7w32RRiAWdLkGR-23" value="" style="endArrow=none;html=1;rounded=0;" edge="1" parent="bPo1Ln7w32RRiAWdLkGR-1" source="bPo1Ln7w32RRiAWdLkGR-21" target="bPo1Ln7w32RRiAWdLkGR-22">
          <mxGeometry width="50" height="50" relative="1" as="geometry">
            <mxPoint x="847" y="732" as="sourcePoint" />
            <mxPoint x="941" y="680" as="targetPoint" />
          </mxGeometry>
        </mxCell>
        <mxCell id="bPo1Ln7w32RRiAWdLkGR-24" value="Gerenciar&lt;div&gt;denúncias&lt;/div&gt;" style="ellipse;whiteSpace=wrap;html=1;" vertex="1" parent="bPo1Ln7w32RRiAWdLkGR-1">
          <mxGeometry x="390" y="590" width="120" height="50" as="geometry" />
        </mxCell>
        <mxCell id="bPo1Ln7w32RRiAWdLkGR-25" value="" style="endArrow=none;html=1;rounded=0;entryX=0.667;entryY=0;entryDx=0;entryDy=0;entryPerimeter=0;" edge="1" parent="bPo1Ln7w32RRiAWdLkGR-1" source="bPo1Ln7w32RRiAWdLkGR-21" target="bPo1Ln7w32RRiAWdLkGR-24">
          <mxGeometry width="50" height="50" relative="1" as="geometry">
            <mxPoint x="1007" y="692" as="sourcePoint" />
            <mxPoint x="1101" y="640" as="targetPoint" />
          </mxGeometry>
        </mxCell>
        <mxCell id="bPo1Ln7w32RRiAWdLkGR-26" value="Usuário" style="shape=umlActor;verticalLabelPosition=bottom;verticalAlign=top;html=1;outlineConnect=0;" vertex="1" parent="bPo1Ln7w32RRiAWdLkGR-1">
          <mxGeometry x="570" y="65" width="30" height="60" as="geometry" />
        </mxCell>
        <mxCell id="bPo1Ln7w32RRiAWdLkGR-27" value="Logar&lt;div&gt;Usuário&lt;/div&gt;" style="ellipse;whiteSpace=wrap;html=1;" vertex="1" parent="bPo1Ln7w32RRiAWdLkGR-1">
          <mxGeometry x="680" y="70" width="120" height="50" as="geometry" />
        </mxCell>
        <mxCell id="bPo1Ln7w32RRiAWdLkGR-28" value="" style="endArrow=none;html=1;rounded=0;entryX=0;entryY=0.5;entryDx=0;entryDy=0;exitX=1;exitY=0.3333333333333333;exitDx=0;exitDy=0;exitPerimeter=0;" edge="1" parent="bPo1Ln7w32RRiAWdLkGR-1" source="bPo1Ln7w32RRiAWdLkGR-26" target="bPo1Ln7w32RRiAWdLkGR-27">
          <mxGeometry width="50" height="50" relative="1" as="geometry">
            <mxPoint x="642" y="119.99999999999997" as="sourcePoint" />
            <mxPoint x="730.1600000000001" y="70.35" as="targetPoint" />
          </mxGeometry>
        </mxCell>
        <mxCell id="bPo1Ln7w32RRiAWdLkGR-29" value="&lt;font style=&quot;vertical-align: inherit;&quot; dir=&quot;auto&quot;&gt;&lt;font style=&quot;vertical-align: inherit;&quot; dir=&quot;auto&quot;&gt;Cadastrar&lt;/font&gt;&lt;/font&gt;&lt;div&gt;&lt;font style=&quot;vertical-align: inherit;&quot; dir=&quot;auto&quot;&gt;&lt;font style=&quot;vertical-align: inherit;&quot; dir=&quot;auto&quot;&gt;Conta&lt;/font&gt;&lt;/font&gt;&lt;/div&gt;" style="ellipse;whiteSpace=wrap;html=1;" vertex="1" parent="bPo1Ln7w32RRiAWdLkGR-1">
          <mxGeometry x="360" y="40" width="120" height="50" as="geometry" />
        </mxCell>
        <mxCell id="bPo1Ln7w32RRiAWdLkGR-32" value="" style="endArrow=none;html=1;rounded=0;" edge="1" parent="bPo1Ln7w32RRiAWdLkGR-1">
          <mxGeometry width="50" height="50" relative="1" as="geometry">
            <mxPoint x="480.00304618570397" y="64.85" as="sourcePoint" />
            <mxPoint x="570" y="95" as="targetPoint" />
          </mxGeometry>
        </mxCell>
        <mxCell id="bPo1Ln7w32RRiAWdLkGR-33" value="" style="endArrow=none;html=1;rounded=0;exitX=1;exitY=0.5;exitDx=0;exitDy=0;" edge="1" parent="bPo1Ln7w32RRiAWdLkGR-1" target="bPo1Ln7w32RRiAWdLkGR-26">
          <mxGeometry width="50" height="50" relative="1" as="geometry">
            <mxPoint x="479.9970501680831" y="125.99892430227041" as="sourcePoint" />
            <mxPoint x="590" y="100" as="targetPoint" />
          </mxGeometry>
        </mxCell>
        <mxCell id="bPo1Ln7w32RRiAWdLkGR-34" value="" style="endArrow=none;html=1;rounded=0;" edge="1" parent="bPo1Ln7w32RRiAWdLkGR-1" target="bPo1Ln7w32RRiAWdLkGR-35">
          <mxGeometry width="50" height="50" relative="1" as="geometry">
            <mxPoint x="373.88793237401205" y="265.9931382042985" as="sourcePoint" />
            <mxPoint x="510" y="290" as="targetPoint" />
          </mxGeometry>
        </mxCell>
        <mxCell id="bPo1Ln7w32RRiAWdLkGR-35" value="Usuário&lt;div&gt;Logado&lt;/div&gt;" style="shape=umlActor;verticalLabelPosition=bottom;verticalAlign=top;html=1;outlineConnect=0;" vertex="1" parent="bPo1Ln7w32RRiAWdLkGR-1">
          <mxGeometry x="570" y="280" width="30" height="60" as="geometry" />
        </mxCell>
        <mxCell id="bPo1Ln7w32RRiAWdLkGR-36" value="" style="endArrow=block;html=1;rounded=0;endFill=0;" edge="1" parent="bPo1Ln7w32RRiAWdLkGR-1">
          <mxGeometry width="50" height="50" relative="1" as="geometry">
            <mxPoint x="585" y="270" as="sourcePoint" />
            <mxPoint x="585" y="160" as="targetPoint" />
          </mxGeometry>
        </mxCell>
        <mxCell id="L2YK7j-c5hRrZ3NQN-42-0" value="" style="endArrow=block;html=1;rounded=0;endFill=0;" edge="1" parent="bPo1Ln7w32RRiAWdLkGR-1">
          <mxGeometry width="50" height="50" relative="1" as="geometry">
            <mxPoint x="586" y="480" as="sourcePoint" />
            <mxPoint x="586" y="380" as="targetPoint" />
          </mxGeometry>
        </mxCell>
        <mxCell id="n5UvSMkovcXcM70yTgul-0" value="Redefinir&lt;div&gt;Senha&lt;/div&gt;" style="ellipse;whiteSpace=wrap;html=1;" vertex="1" parent="bPo1Ln7w32RRiAWdLkGR-1">
          <mxGeometry x="360" y="110" width="120" height="50" as="geometry" />
        </mxCell>
        <mxCell id="n5UvSMkovcXcM70yTgul-1" value="Editar&lt;div&gt;Perfil&lt;/div&gt;" style="ellipse;whiteSpace=wrap;html=1;" vertex="1" parent="bPo1Ln7w32RRiAWdLkGR-1">
          <mxGeometry x="260" y="230" width="120" height="50" as="geometry" />
        </mxCell>
      </root>
    </mxGraphModel>
  </diagram>
</mxfile>
